<?xml version="1.0" standalone="no"?>
<!DOCTYPE svg PUBLIC "-//W3C//DTD SVG 1.1//EN" "http://www.w3.org/Graphics/SVG/1.1/DTD/svg11.dtd" >
<!--
2013-9-30: Created.
-->
<svg>
<metadata>
Created by iconfont
</metadata>
<defs>

<font id="iconfont" horiz-adv-x="1024" >
  <font-face
    font-family="iconfont"
    font-weight="500"
    font-stretch="normal"
    units-per-em="1024"
    ascent="896"
    descent="-128"
  />
    <missing-glyph />
    
    <glyph glyph-name="flowparallel" unicode="&#59103;" d="M768 121.472l0 357.024c49.536 17.696 85.344 64.608 85.344 120.16 0 70.56-57.44 128-128 128s-128-57.44-128-128c0-55.552 35.808-102.432 85.344-120.096l0-357.088c-49.536-17.696-85.344-64.608-85.344-120.16 0-70.56 57.44-128 128-128s128 57.44 128 128c0 55.552-35.808 102.432-85.344 120.16zM725.344 641.344c23.552 0 42.656-19.168 42.656-42.656s-19.104-42.656-42.656-42.656-42.656 19.168-42.656 42.656 19.104 42.656 42.656 42.656zM725.344-41.344c-23.552 0-42.656 19.168-42.656 42.656s19.104 42.656 42.656 42.656 42.656-19.168 42.656-42.656-19.104-42.656-42.656-42.656zM426.656 598.656c0 70.56-57.44 128-128 128s-128-57.44-128-128c0-55.552 35.808-102.432 85.344-120.096l0-357.088c-49.536-17.696-85.344-64.608-85.344-120.16 0-70.56 57.44-128 128-128s128 57.44 128 128c0 55.552-35.808 102.432-85.344 120.16l0 357.024c49.536 17.696 85.344 64.608 85.344 120.16zM298.656 641.344c23.552 0 42.656-19.168 42.656-42.656s-19.104-42.656-42.656-42.656-42.656 19.168-42.656 42.656 19.104 42.656 42.656 42.656zM298.656-41.344c-23.552 0-42.656 19.168-42.656 42.656s19.104 42.656 42.656 42.656 42.656-19.168 42.656-42.656-19.104-42.656-42.656-42.656z"  horiz-adv-x="1024" />

    
    <glyph glyph-name="hengpai" unicode="&#59105;" d="M921.6 812l-819.2 0C45.83424 812 0 754.656 0 684S45.83424 556 102.4 556l819.2 0C978.1248 556 1024 613.2928 1024 684S978.1248 812 921.6 812zM880.64 607.2l-122.88 0C723.80416 607.2 696.32 641.5552 696.32 684S723.80416 760.8 757.76 760.8l122.88 0C914.55488 760.8 942.08 726.3936 942.08 684S914.55488 607.2 880.64 607.2zM921.6 453.6l-819.2 0C45.83424 453.6 0 396.256 0 325.6S45.83424 197.6 102.4 197.6l819.2 0c56.56576 0 102.4 57.2928 102.4 128S978.1248 453.6 921.6 453.6zM880.64 248.8l-450.56 0C396.12416 248.8 368.64 283.1552 368.64 325.6S396.12416 402.4 430.08 402.4l450.56 0C914.55488 402.4 942.08 367.9936 942.08 325.6S914.55488 248.8 880.64 248.8zM921.6 44l-819.2 0C45.83424 44 0-13.344 0-84S45.83424-212 102.4-212l819.2 0c56.56576 0 102.4 57.2928 102.4 128S978.1248 44 921.6 44zM880.64-160.8l-122.88 0c-33.91488 0-61.44 34.4064-61.44 76.8s27.52512 76.8 61.44 76.8l122.88 0c33.91488 0 61.44-34.4064 61.44-76.8S914.55488-160.8 880.64-160.8z"  horiz-adv-x="1024" />

    
    <glyph glyph-name="zhongzuo" unicode="&#59005;" d="M871.367627 473.534312c2.800904-2.823302 4.551852-6.719028 4.551852-11.008728 0-4.311189-1.750949-8.185426-4.595856-11.008728L597.89319 180.504442c-1.423477-1.422396-3.6554-1.925862-5.625345-1.116427-1.991435 0.831948-3.194893 2.75781-3.194893 4.79419L589.072953 347.953152c-88.816384 0-314.993717-2.056845-314.993717-241.74995 0-125.493156 86.365465-230.206032 201.226059-254.411317-184.526041 25.781176-327.227844 187.04707-327.227844 384.281153 0 366.389668 379.821798 369.475959 440.994479 369.475959L589.071929 743.035302c0 2.035356 1.203457 3.961218 3.194893 4.771677 1.991435 0.831948 4.201867 0.328481 5.647858-1.116427L871.367627 473.534312z"  horiz-adv-x="1024" />

    
    <glyph glyph-name="5" unicode="&#59169;" d="M476.429474 231.014737c-7.545263 3.233684-17.246316-1.077895-22.635789-8.623158-4.311579-7.545263-2.155789-16.168421 5.389474-19.402105 7.545263-3.233684 18.324211 0 22.635789 8.623158C487.208421 219.157895 485.052632 227.781053 476.429474 231.014737zM526.012632 812C239.292632 812 7.545263 582.408421 7.545263 300 7.545263 17.591579 239.292632-212 526.012632-212s518.467368 229.591579 518.467368 512C1044.48 582.408421 811.654737 812 526.012632 812zM475.351579 11.124211C309.355789 11.124211 140.126316 89.810526 140.126316 219.157895c0 67.907368 44.193684 145.515789 118.568421 219.890526 100.244211 98.088421 217.734737 143.36 261.928421 100.244211 19.402105-19.402105 21.557895-51.738947 8.623158-91.621053-6.467368-19.402105 19.402105-8.623158 19.402105-8.623158 80.842105 33.414737 151.983158 35.570526 177.852632-1.077895 14.012632-19.402105 12.934737-46.349474 0-77.608421-5.389474-14.012632 2.155789-17.246316 12.934737-20.48 46.349474-14.012632 97.010526-47.427368 97.010526-106.711579C836.446316 135.082105 692.008421 11.124211 475.351579 11.124211zM775.006316 421.802105c5.389474 16.168421 2.155789 34.492632-10.778947 48.505263-12.934737 14.012632-31.258947 18.324211-47.427368 15.090526l0 0c-14.012632-3.233684-28.025263 5.389474-31.258947 19.402105-3.233684 14.012632 6.467368 28.025263 20.48 30.181053 34.492632 7.545263 72.218947-3.233684 98.088421-31.258947 25.869474-28.025263 32.336842-65.751579 21.557895-98.088421-4.311579-14.012632-19.402105-20.48-33.414737-16.168421C778.24 393.776842 770.694737 408.867368 775.006316 421.802105L775.006316 421.802105zM928.067368 373.296842c-5.389474-16.168421-22.635789-24.791579-38.804211-19.402105-16.168421 5.389474-24.791579 21.557895-19.402105 37.726316l0 0c16.168421 48.505263 5.389474 103.477895-31.258947 143.36-37.726316 39.882105-92.698947 56.050526-143.36 45.271579-16.168421-3.233684-32.336842 6.467368-36.648421 22.635789-3.233684 16.168421 6.467368 32.336842 23.713684 35.570526l0 0c71.141053 15.090526 148.749474-6.467368 201.566316-63.595789C936.690526 518.812632 950.703158 441.204211 928.067368 373.296842 928.067368 373.296842 928.067368 373.296842 928.067368 373.296842zM425.768421 210.534737c-20.48 8.623158-47.427368 0-59.284211-19.402105-12.934737-19.402105-6.467368-43.115789 14.012632-51.738947 20.48-9.701053 48.505263 0 60.362105 19.402105C453.793684 178.197895 447.326316 201.911579 425.768421 210.534737zM444.092632 364.673684C312.589474 351.738947 212.345263 273.052632 220.968421 187.898947c8.623158-85.153684 122.88-143.36 255.461053-130.425263 132.581053 12.934737 232.825263 91.621053 224.202105 176.774737C690.930526 319.402105 576.673684 377.608421 444.092632 364.673684zM560.505263 164.185263c-26.947368-59.284211-104.555789-91.621053-170.307368-71.141053-63.595789 20.48-90.543158 81.92-62.517895 136.892632 26.947368 53.894737 98.088421 85.153684 161.684211 68.985263C554.037895 282.753684 587.452632 223.469474 560.505263 164.185263z"  horiz-adv-x="1045" />

    
    <glyph glyph-name="changjing" unicode="&#59171;" d="M867.995947 389.536222 298.756291 389.536222l572.107983 194.142675c35.866882 10.969842 56.3064 48.973388 45.600571 84.989673l-14.668071 49.335638c-8.572236 28.833699-35.553751 48.971341-65.615417 48.971341-6.597255 0-13.168927-0.959861-19.530822-2.850931l-0.468674-0.13917L126.242216 529.857085c-35.866882-10.969842-56.307424-48.973388-45.599548-84.990696l14.667048-49.334615c4.044106-13.600763 12.186554-25.264407 22.814612-33.794687-8.433066-11.381212-13.430894-25.454742-13.430894-40.675398l0-433.196213c0-37.755905 30.716582-68.473511 68.473511-68.473511l694.829002 0c37.755905 0 68.473511 30.717605 68.473511 68.473511l0 433.196213C936.470481 358.818617 905.752876 389.536222 867.995947 389.536222zM885.305171 321.062711l0-68.77641L684.655292 252.286302l69.530586 86.084611 113.810069 0C877.540324 338.370913 885.305171 330.607088 885.305171 321.062711zM173.166945 338.370913 347.303984 338.370913l-76.42153-76.422554c-2.819209-2.819209-4.842285-6.133697-6.070252-9.662057L155.859767 252.286302l0 68.77641C155.859767 330.607088 163.623591 338.370913 173.166945 338.370913zM414.288584 332.996508c1.641383 1.641383 3.007497 3.452635 4.109598 5.374404l270.01776 0-63.352887-78.437443c-1.901303-2.354628-3.313465-4.944616-4.25593-7.647167L333.578378 252.286302 414.288584 332.996508zM141.344169 480.971701l0.468674 0.13917L831.595922 715.185001c1.5104 0.414439 3.050476 0.624217 4.583388 0.624217 7.588839 0 14.404058-5.094018 16.571421-12.386098l14.668071-49.335638c2.718925-9.147334-2.51017-18.803251-11.658528-21.522176l-0.468674-0.13917L165.509545 398.350982c-1.5104-0.414439-3.049452-0.624217-4.582365-0.624217-7.589862 0-14.404058 5.094018-16.572444 12.387122l-14.667048 49.334615C126.966717 468.595836 132.195811 478.251753 141.344169 480.971701zM867.995947-129.441703 173.166945-129.441703c-9.543354 0-17.308201 7.764847-17.308201 17.308201l0 313.254493 729.445404 0 0-313.254493C885.305171-121.676855 877.540324-129.441703 867.995947-129.441703z"  horiz-adv-x="1024" />

    
    <glyph glyph-name="icon08" unicode="&#58944;" d="M512 896a512 512 0 1 1 512-512A512 512 0 0 1 512 896zM294.912 698.026667h434.176c23.893333 0 38.2976-22.801067 43.349333-55.7056l-0.682666-72.840534H627.643733a30.856533 30.856533 0 0 1-30.173866 25.1904h-165.205334A30.72 30.72 0 0 1 402.0224 568.3199999999999v0.8192h-150.186667l-0.546133 72.840533C256.8192 672.494933 271.018667 698.026667 294.912 698.026667z m413.559467-619.861334a25.053867 25.053867 0 0 0-16.930134-8.192H335.530667a27.8528 27.8528 0 0 0-16.930134 8.192l-58.641066 48.9472 504.081066-1.2288z m54.613333 90.043734H260.983467a53.725867 53.725867 0 0 0-53.725867 53.794133l42.5984 286.037333h151.893333A30.788267 30.788267 0 0 1 432.264533 479.573333h165.205334A30.72 30.72 0 0 1 628.053333 508.040533h148.616534l40.209066-286.037333a53.725867 53.725867 0 0 0-53.8624-53.794133z"  horiz-adv-x="1024" />

    
    <glyph glyph-name="youxiang1" unicode="&#58945;" d="M523.264 548.932267c-20.821333 0-34.133333-27.716267-34.133333-48.5376 0-15.9744 7.714133-23.688533 18.8416-23.688534 7.441067 0 14.5408 4.573867 23.688533 15.9744l8.260267 45.6704a18.773333 18.773333 0 0 1-16.657067 10.581334zM512 896a512 512 0 1 1 512-512A512 512 0 0 1 512 896z m22.1184-247.534933c68.744533 0 112.366933-46.4896 112.366933-112.981334 0-58.504533-38.5024-88.132267-71.338666-88.132266-18.2272 0-33.041067 8.533333-36.181334 24.507733h-0.6144a52.906667 52.906667 0 0 0-39.048533-21.640533c-24.576 0-41.642667 18.2272-41.642667 47.786666 0 37.956267 27.306667 78.165333 64.443734 78.165334a25.941333 25.941333 0 0 0 24.849066-15.9744h0.546134l4.573866 13.653333h25.941334l-13.653334-69.632c-5.12-20.821333 0-30.5152 15.428267-30.5152 19.729067 0 39.936 23.415467 39.936 60.484267 0 48.264533-26.487467 88.746667-88.746667 88.746666-55.9104 0-110.933333-47.786667-110.933333-121.2416 0-63.624533 43.349333-95.573333 95.573333-95.573333a107.178667 107.178667 0 0 1 49.902934 13.1072l9.4208-23.415467a124.928 124.928 0 0 0-62.805334-15.701333C447.0784 379.6992 391.168 419.362133 391.168 500.053333c0 89.361067 65.604267 148.411733 142.9504 148.411734z m-314.845867-487.765334v314.026667a10.103467 10.103467 0 0 0 16.315734 7.9872l163.157333-126.907733a10.103467 10.103467 0 0 0 1.2288-14.882134l-178.722133-192.3072a41.847467 41.847467 0 0 0-1.979734 12.0832z m529.6128-40.96c-86.4256-0.4096-387.959467-0.4096-473.975466 0a10.103467 10.103467 0 0 0-7.3728 16.9984l166.775466 177.493334a9.966933 9.966933 0 0 0 13.653334 1.160533l58.026666-43.8272a10.0352 10.0352 0 0 1 12.356267 0L573.44 315.733333a10.103467 10.103467 0 0 0 13.653333-0.955733l169.3696-177.834667a10.103467 10.103467 0 0 0-7.5776-17.134933z m55.842134 40.96a41.847467 41.847467 0 0 0-1.979734-12.0832L624.0256 340.7872a10.103467 10.103467 0 0 0 1.2288 14.882133l163.157333 126.907734a10.103467 10.103467 0 0 0 16.315734-7.9872z"  horiz-adv-x="1024" />

    
    <glyph glyph-name="weixin" unicode="&#59127;" d="M639.7952 459.093333c-97.4848 0-176.7424-66.628267-176.7424-148.753066s79.2576-148.753067 176.7424-148.753067a267.537067 267.537067 0 0 1 63.965867 10.8544 15.7696 15.7696 0 0 0 11.8784-1.501867l27.306666-14.9504-5.597866 18.6368a16.247467 16.247467 0 0 0 5.802666 17.476267c46.830933 35.362133 73.045333 77.073067 72.9088 118.306133C816.128 391.3728 735.4368 459.093333 639.7952 459.093333z m-29.9008-99.396266A29.9008 29.9008 0 1 0 580.266667 389.5296a29.9008 29.9008 0 0 0 29.832533-29.832533z m95.0272-29.832534a29.832533 29.832533 0 1 0 29.832533 29.832534 29.9008 29.9008 0 0 0-29.832533-29.832534zM501.623467 487.697067a32.085333 32.085333 0 1 1-32.017067 32.085333 32.017067 32.017067 0 0 1 32.017067-32.085333zM512 896a512 512 0 1 1 512-512A512 512 0 0 1 512 896z m260.164267-722.056533l13.653333-46.011734a16.1792 16.1792 0 0 0-5.393067-17.476266 16.657067 16.657067 0 0 0-10.171733-3.618134 16.110933 16.110933 0 0 0-7.918933 2.048l-56.661334 30.9248a278.9376 278.9376 0 0 0-65.809066-10.24 231.082667 231.082667 0 0 0-118.3744 31.880534 187.5968 187.5968 0 0 0-76.322134 83.3536 15.633067 15.633067 0 0 0-4.027733-0.8192 167.389867 167.389867 0 0 0-22.528-1.024 327.68 327.68 0 0 0-70.0416 8.8064L341.333333 253.20106699999997 266.717867 216.06399999999996a16.452267 16.452267 0 0 0-12.561067-0.955733 16.315733 16.315733 0 0 0-10.308267 20.48l18.909867 56.9344C205.550933 336.21333300000003 175.240533 390.826667 175.240533 451.857067c0 115.438933 109.226667 209.3056 243.165867 209.3056 117.896533 0 222.890667-73.9328 244.599467-171.349334a222.754133 222.754133 0 0 0 129.706666-57.480533 167.3216 167.3216 0 0 0 56.251734-122.4704c-0.2048-47.854933-27.511467-96.529067-76.8-135.918933zM341.674667 551.799467a32.017067 32.017067 0 0 1-32.017067-32.017067 32.017067 32.017067 0 1 1 32.017067 32.017067z"  horiz-adv-x="1024" />

    
    <glyph glyph-name="dianhuajianpan" unicode="&#59149;" d="M766.438946-47.5579c-4.429893 0-7.181563 0.145309-7.476275 0.160659l-0.290619 0.01842c-42.736337 3.02387-90.967828 17.787108-139.483798 42.693358l-0.587378 0.315178-54.078663 30.248931c-102.549607 56.177464-259.853259 218.356147-266.500657 225.233787l-11.432377 11.828396 0.092098 0.11461c-27.666106 29.688159-84.594677 94.66094-133.902686 175.60753-55.477522 91.075275-81.612763 169.619142-77.67815 233.44889 2.922563 47.425126 22.463618 85.97307 58.07979 114.573455 38.268582 30.728862 73.250304 43.540655 106.933451 39.162952 36.108383-4.690836 69.019956-28.681226 103.573937-75.497485 2.307555-3.127224 4.591575-6.207375 6.842849-9.244548 25.679869-34.643008 47.857984-64.562435 55.935963-95.558379 9.42772-36.173874-1.87572-69.727061-34.558074-102.576213l-1.133823-1.139963-0.239454-0.143263c-1.543146-1.576915-8.922207-10.053983-9.100262-28.119431-0.180102-18.291598 6.823406-40.11565 20.814048-64.866357 19.22076-34.000372 51.161217-72.403007 94.934163-114.14162 73.369008-69.476351 120.596635-88.594781 147.289578-92.391247 23.400966-3.329838 33.67803 4.653997 35.45756 6.243191l0.306992 0.428765-0.25071-0.378623c0.052189 0.048095 0.096191 0.088004 0.12996 0.12075 27.874861 32.115442 63.648622 42.73122 106.3297 31.54853 30.785144-8.064676 64.736397-26.939559 110.083188-61.199851 34.673707-26.194592 55.872518-52.227502 64.805982-79.588663 9.91379-30.357402 5.175883-61.742203-14.482853-95.946212-5.145184-8.953929-16.573467-12.040221-25.526373-6.892991-8.951883 5.145184-12.039197 16.573467-6.892991 25.526373 14.275121 24.837688 17.885346 45.717228 11.357675 65.705468-6.482645 19.854187-23.427572 39.926338-51.800783 61.36051-53.480029 40.404222-80.984453 50.661843-97.019661 54.862515-29.009707 7.600095-50.218752 1.410116-68.768223-20.064988-2.236947-2.578732-16.8559-18.027585-47.285956-19.762089-50.306756-2.858094-114.064872 31.898501-189.489702 103.322204C364.582509 390.261611 321.769424 460.825736 324.130192 517.230374c1.333368 31.846312 17.013489 48.312332 21.691021 52.538587 46.799886 47.340191 27.248597 78.138638-25.329898 149.069107-2.266623 3.057639-4.564969 6.15928-6.887874 9.30697-28.097942 38.068014-52.979632 57.33073-78.30646 60.621682-23.048949 2.994194-48.796356-7.223518-78.70248-31.237445-27.442002-22.037922-41.891086-50.730405-44.171012-87.718831-3.406586-55.261605 21.591761-128.46586 72.290443-211.69647 55.645344-91.351568 121.350812-161.615864 140.164297-180.974771l2.491751-2.564405c20.531616-20.967544 164.28874-166.17981 255.178797-215.937051l0.149403-0.082888 53.862745-30.126134c43.889603-22.49227 86.947258-35.799344 124.561947-38.494733 1.385557-0.062422 16.679891-0.665149 33.288151 2.122337 5.990434 1.004887 12.458753 2.228761 19.305695 3.52222 25.75764 4.867868 57.81373 10.927887 100.929714 12.644995 10.296507 0.403183 19.015076-7.619538 19.425422-17.936511 0.411369-10.316973-7.618515-19.015076-17.936511-19.425422-40.364313-1.608637-70.922283-7.385201-95.474468-12.025894-7.04137-1.330298-13.690814-2.586918-20.058848-3.656273C786.892791-47.120948 774.135232-47.5579 766.438946-47.5579zM591.506798 583.438285l-46.030359 0c-10.326183 0-18.696828 8.370645-18.696828 18.696828s8.370645 18.696828 18.696828 18.696828l46.030359 0c10.326183 0 18.696828-8.370645 18.696828-18.696828S601.832981 583.438285 591.506798 583.438285zM693.465958 583.438285l-46.030359 0c-10.326183 0-18.696828 8.370645-18.696828 18.696828s8.370645 18.696828 18.696828 18.696828l46.030359 0c10.326183 0 18.696828-8.370645 18.696828-18.696828S703.792141 583.438285 693.465958 583.438285zM795.428188 583.438285l-46.030359 0c-10.326183 0-18.696828 8.370645-18.696828 18.696828s8.370645 18.696828 18.696828 18.696828l46.030359 0c10.326183 0 18.696828-8.370645 18.696828-18.696828S805.754371 583.438285 795.428188 583.438285zM591.506798 517.6223l-46.030359 0c-10.326183 0-18.696828 8.370645-18.696828 18.696828s8.370645 18.696828 18.696828 18.696828l46.030359 0c10.326183 0 18.696828-8.370645 18.696828-18.696828S601.832981 517.6223 591.506798 517.6223zM693.465958 517.6223l-46.030359 0c-10.326183 0-18.696828 8.370645-18.696828 18.696828s8.370645 18.696828 18.696828 18.696828l46.030359 0c10.326183 0 18.696828-8.370645 18.696828-18.696828S703.792141 517.6223 693.465958 517.6223zM795.428188 517.6223l-46.030359 0c-10.326183 0-18.696828 8.370645-18.696828 18.696828s8.370645 18.696828 18.696828 18.696828l46.030359 0c10.326183 0 18.696828-8.370645 18.696828-18.696828S805.754371 517.6223 795.428188 517.6223zM591.506798 451.807339l-46.030359 0c-10.326183 0-18.696828 8.370645-18.696828 18.696828s8.370645 18.696828 18.696828 18.696828l46.030359 0c10.326183 0 18.696828-8.370645 18.696828-18.696828S601.832981 451.807339 591.506798 451.807339zM693.465958 451.807339l-46.030359 0c-10.326183 0-18.696828 8.370645-18.696828 18.696828s8.370645 18.696828 18.696828 18.696828l46.030359 0c10.326183 0 18.696828-8.370645 18.696828-18.696828S703.792141 451.807339 693.465958 451.807339zM795.428188 451.807339l-46.030359 0c-10.326183 0-18.696828 8.370645-18.696828 18.696828s8.370645 18.696828 18.696828 18.696828l46.030359 0c10.326183 0 18.696828-8.370645 18.696828-18.696828S805.754371 451.807339 795.428188 451.807339zM693.465958 384.968048l-46.030359 0c-10.326183 0-18.696828 8.370645-18.696828 18.696828s8.370645 18.696828 18.696828 18.696828l46.030359 0c10.326183 0 18.696828-8.370645 18.696828-18.696828S703.792141 384.968048 693.465958 384.968048z"  horiz-adv-x="1024" />

    
    <glyph glyph-name="rili" unicode="&#59150;" d="M221.581608 227.135346c-10.172687 0-18.419512-8.246825-18.419512-18.419512s8.246825-18.419512 18.419512-18.419512l231.712339 0c10.172687 0 18.419512 8.246825 18.419512 18.419512L471.713458 573.192943c0 10.172687-8.246825 18.419512-18.419512 18.419512L221.581608 591.612455c-10.172687 0-18.419512-8.246825-18.419512-18.419512 0-10.172687 8.246825-18.419512 18.419512-18.419512l213.292827 0L434.874435 410.458605 221.581608 410.458605c-10.172687 0-18.419512-8.246825-18.419512-18.419512s8.246825-18.419512 18.419512-18.419512l213.292827 0 0-146.484236L221.581608 227.135346zM840.480266 208.715835 840.480266 573.192943c0 10.172687-8.246825 18.419512-18.419512 18.419512L590.348416 591.612455c-10.172687 0-18.419512-8.246825-18.419512-18.419512l0-364.477109c0-10.172687 8.246825-18.419512 18.419512-18.419512l231.712339 0C832.233442 190.296323 840.480266 198.542124 840.480266 208.715835zM803.641243 227.135346 608.767927 227.135346 608.767927 554.773432l194.873316 0L803.641243 227.135346zM876.645954 818.525488 760.315482 818.525488 760.315482 839.55443c0 10.172687-8.246825 18.419512-18.419512 18.419512s-18.419512-8.246825-18.419512-18.419512l0-21.027919L320.165904 818.526511 320.165904 839.55443c0 10.172687-8.246825 18.419512-18.419512 18.419512s-18.419512-8.246825-18.419512-18.419512l0-21.027919L166.996408 818.526511c-62.766532 0-113.831558-51.064003-113.831558-113.831558l0-588.351945c0-62.766532 51.064003-113.830535 113.831558-113.830535l486.643496 0c0.189312 0 0.3776 0.00307 0.565888 0.00921 0.164752-0.002047 16.619516 0.369414 37.182854-4.010337 33.767058-7.193843 52.414767-21.364587 62.111616-31.985482 3.634784-3.980661 8.612145-5.999644 13.607926-5.999644 4.433986 0 8.882298 1.592264 12.414751 4.816702 7.513114 6.859221 8.042163 18.510586 1.182942 26.022677-44.574195 48.817846-120.877021 48.140417-127.304408 47.986921L166.996408 39.352519c-42.453904 0-76.992535 34.538631-76.992535 76.991512L90.003873 704.694953c0 42.453904 34.538631 76.992535 76.992535 76.992535L283.32688 781.687488l0-26.830065c0-10.172687 8.246825-18.419512 18.419512-18.419512s18.419512 8.246825 18.419512 18.419512L320.165904 781.686465l403.310555 0 0-26.830065c0-10.172687 8.246825-18.419512 18.419512-18.419512s18.419512 8.246825 18.419512 18.419512L760.315482 781.686465l116.330472 0c42.452881 0 76.991512-34.538631 76.991512-76.992535l0-588.351945c0-42.452881-34.538631-76.991512-76.991512-76.991512l-38.389332 0c-10.172687 0-18.419512-8.246825-18.419512-18.419512s8.246825-18.419512 18.419512-18.419512l38.389332 0c62.766532 0 113.830535 51.064003 113.830535 113.830535L990.476489 704.694953C990.476489 767.461485 939.412486 818.525488 876.645954 818.525488z"  horiz-adv-x="1024" />

    
    <glyph glyph-name="zuoji" unicode="&#59151;" d="M1024 384a512 512 0 1 1-512-512A512 512 0 0 1 1024 384Zm-826.027-139.81c-16.1109 32.2219-10.7179 69.8368 10.7861 102.4 0 5.39307 5.39307 5.39307 5.3931 10.7179A748.954 748.954 0 0 0 730.453 588.1859999999999l5.3248 0a123.563 123.563 0 0 0 91.4092-64.5121c21.504-48.3328 0-112.845-48.4012-134.349s-112.845 0-134.349 48.3333l0 5.39307c-37.6149-5.39303-86.016-21.504-134.417-43.0076s-91.3408-48.3329-118.238-75.0935a5.25653 5.25653 0 0 1 5.39307-5.39307c21.504-48.4011 0-112.845-48.4012-134.349-64.7167-16.3157-129.229 5.18833-150.801 58.9821Z"  horiz-adv-x="1024" />

    
    <glyph glyph-name="fenxiang" unicode="&#59152;" d="M689.204911 137.168312c-32.140001 0-61.344137-12.792351-82.802868-33.547047L315.245847 325.846532c9.228175 16.916275 14.476713 36.301787 14.476713 56.891731 0 20.541849-5.222955 39.886429-14.410198 56.775074l295.333332 226.291886c20.992103-18.437931 48.490388-29.634948 78.559217-29.634948 65.722864 0 119.192659 53.469795 119.192659 119.192659 0 65.720817-53.469795 119.188566-119.192659 119.188566-65.720817 0-119.188566-53.467749-119.188566-119.188566 0-22.38687 6.208399-43.348274 16.98586-61.262272L292.934702 468.776825c-21.419845 20.524452-50.462299 33.154098-82.399685 33.154098-65.723887 0-119.193683-53.469795-119.193683-119.193683 0-65.720817 53.469795-119.188566 119.193683-119.188566 31.888268 0 60.890812 12.589736 82.301448 33.056883l291.325042-222.354204c-9.020444-16.769942-14.146185-35.933397-14.146185-56.271608 0-65.723887 53.467749-119.193683 119.188566-119.193683 65.722864 0 119.192659 53.469795 119.192659 119.193683C808.396547 83.700563 754.926752 137.168312 689.204911 137.168312zM689.204911 837.711456c45.409213 0 82.353636-36.942377 82.353636-82.349543 0-45.409213-36.944424-82.353636-82.353636-82.353636-45.407166 0-82.349543 36.944424-82.349543 82.353636C606.855368 800.770102 643.797745 837.711456 689.204911 837.711456zM210.535017 300.38872c-45.410236 0-82.35466 36.942377-82.35466 82.349543 0 45.410236 36.944424 82.35466 82.35466 82.35466 45.407166 0 82.34852-36.944424 82.34852-82.35466C292.883537 337.330074 255.942183 300.38872 210.535017 300.38872zM689.204911-64.373891c-45.407166 0-82.349543 36.944424-82.349543 82.35466 0 45.407166 36.942377 82.349543 82.349543 82.349543 45.409213 0 82.353636-36.942377 82.353636-82.349543C771.557524-27.43049 734.614124-64.373891 689.204911-64.373891z"  horiz-adv-x="1024" />

    
    <glyph glyph-name="chuzuchetianchong" unicode="&#59153;" d="M678.980267 385.706667a58.299733 58.299733 0 1 1 58.299733-58.299734 58.299733 58.299733 0 0 1-58.299733 58.299734zM345.019733 385.706667a58.299733 58.299733 0 1 1 58.299734-58.299734 58.299733 58.299733 0 0 1-58.299734 58.299734zM512 896a512 512 0 1 1 512-512A512 512 0 0 1 512 896z m282.760533-696.866133h-23.7568v-67.242667a24.439467 24.439467 0 0 0-24.507733-24.439467h-44.8512a24.439467 24.439467 0 0 0-24.439467 24.439467v67.242667H346.794667v-67.242667a24.439467 24.439467 0 0 0-24.507734-24.439467h-44.782933a24.439467 24.439467 0 0 0-24.507733 24.439467v67.242667h-23.7568A26.555733 26.555733 0 0 0 204.8 230.1952l21.981867 202.274133a25.531733 25.531733 0 0 0 24.234666 23.483734h71.748267l28.398933 143.36A24.439467 24.439467 0 0 0 375.466667 619.0421329999999h85.4016v17.066667a24.439467 24.439467 0 0 0 24.439466 24.439467h68.266667a24.439467 24.439467 0 0 0 24.439467-24.439467v-17.066667h70.8608a24.439467 24.439467 0 0 0 23.9616-19.729066l28.398933-143.36h71.748267a25.531733 25.531733 0 0 0 24.234666-23.483734L819.2 230.1952a26.4192 26.4192 0 0 0-24.439467-31.061333zM606.071467 572.962133a14.404267 14.404267 0 0 1-14.062934 11.537067H431.991467a14.336 14.336 0 0 1-14.062934-11.537067l-16.9984-85.8112h222.139734z"  horiz-adv-x="1024" />

    
    <glyph glyph-name="dianhuajianpantianchong" unicode="&#59154;" d="M915.078144 40.84736c34.132992 59.406336 15.22688 105.025536-45.220864 150.678528-71.057408 53.660672-140.500992 89.761792-190.43328 31.939584 0 0-52.989952-63.085568-208.927744 84.535296-181.328896 172.8512-105.22624 234.155008-105.22624 234.155008 63.060992 63.401984 22.976512 110.696448-29.915136 182.334464-52.887552 71.632896-106.313728 94.30528-183.013376 32.697344C4.540416 638.459904 212.950016 359.689216 318.32064 251.2896l-0.004096-0.004096c0 0 160.234496-165.740544 261.066752-220.919808l53.941248-30.157824c77.366272-39.701504 164.267008-57.875456 225.446912-21.009408C858.771456-20.80256 888.262656-5.63712 915.078144 40.84736zM568.69888 538.027008l-46.445568 0c-10.227712 0-18.51904 8.291328-18.51904 18.51904s8.291328 18.51904 18.51904 18.51904l46.445568 0c10.227712 0 18.51904-8.291328 18.51904-18.51904S578.926592 538.027008 568.69888 538.027008zM671.58528 538.027008l-46.446592 0c-10.227712 0-18.51904 8.291328-18.51904 18.51904s8.291328 18.51904 18.51904 18.51904l46.446592 0c10.227712 0 18.51904-8.291328 18.51904-18.51904S681.812992 538.027008 671.58528 538.027008zM774.470656 538.027008l-46.446592 0c-10.227712 0-18.51904 8.291328-18.51904 18.51904s8.291328 18.51904 18.51904 18.51904l46.446592 0c10.227712 0 18.51904-8.291328 18.51904-18.51904S784.699392 538.027008 774.470656 538.027008zM568.69888 470.95296l-46.445568 0c-10.227712 0-18.51904 8.291328-18.51904 18.51904s8.291328 18.51904 18.51904 18.51904l46.445568 0c10.227712 0 18.51904-8.291328 18.51904-18.51904S578.926592 470.95296 568.69888 470.95296zM671.58528 470.95296l-46.446592 0c-10.227712 0-18.51904 8.291328-18.51904 18.51904s8.291328 18.51904 18.51904 18.51904l46.446592 0c10.227712 0 18.51904-8.291328 18.51904-18.51904S681.812992 470.95296 671.58528 470.95296zM774.470656 470.95296l-46.446592 0c-10.227712 0-18.51904 8.291328-18.51904 18.51904s8.291328 18.51904 18.51904 18.51904l46.446592 0c10.227712 0 18.51904-8.291328 18.51904-18.51904S784.699392 470.95296 774.470656 470.95296zM568.69888 401.32096l-46.445568 0c-10.227712 0-18.51904 8.291328-18.51904 18.51904s8.291328 18.51904 18.51904 18.51904l46.445568 0c10.227712 0 18.51904-8.291328 18.51904-18.51904S578.926592 401.32096 568.69888 401.32096zM671.58528 401.32096l-46.446592 0c-10.227712 0-18.51904 8.291328-18.51904 18.51904s8.291328 18.51904 18.51904 18.51904l46.446592 0c10.227712 0 18.51904-8.291328 18.51904-18.51904S681.812992 401.32096 671.58528 401.32096zM774.470656 401.32096l-46.446592 0c-10.227712 0-18.51904 8.291328-18.51904 18.51904s8.291328 18.51904 18.51904 18.51904l46.446592 0c10.227712 0 18.51904-8.291328 18.51904-18.51904S784.699392 401.32096 774.470656 401.32096zM671.58528 327.59296l-46.446592 0c-10.227712 0-18.51904 8.291328-18.51904 18.51904s8.291328 18.51904 18.51904 18.51904l46.446592 0c10.227712 0 18.51904-8.291328 18.51904-18.51904S681.812992 327.59296 671.58528 327.59296z"  horiz-adv-x="1024" />

    
    <glyph glyph-name="tansuofaxian" unicode="&#59156;" d="M1014.857143 400.126171l-48.036571 27.7504c-9.678629 102.142171-53.535086 201.607314-131.5712 279.643429-75.999086 76.035657-174.142171 121.929143-279.857371 131.821714L527.786057 887.162514c-6.500571 11.285943-25.142857 11.285943-31.643429 0l-27.607771-47.8208c-105.678629-9.892571-203.7504-55.749486-279.8208-131.7504-77.999543-78.070857-121.857829-177.570743-131.499886-279.714743L9.142857 400.126171c-5.642971-3.249371-9.142857-9.285486-9.142857-15.8208 0-6.537143 3.465143-12.571429 9.142857-15.822629l48.071314-27.785143c9.713371-102.142171 53.571657-201.642057 131.5712-279.678171 75.999086-75.927771 174.070857-121.786514 279.714743-131.713829l27.679086-47.857371c3.249371-5.677714 9.285486-9.142857 15.8208-9.142857s12.571429 3.499886 15.8208 9.142857l27.642514 47.857371c105.678629 9.929143 203.785143 55.749486 279.786057 131.713829 78.036114 78.070857 121.892571 177.570743 131.5712 279.714743L1014.857143 368.482743c5.677714 3.249371 9.142857 9.285486 9.142857 15.822629C1024 390.840686 1020.500114 396.8768 1014.857143 400.126171zM783.535543 112.731429c-72.4992-72.464457-168.928914-112.393143-271.5008-112.393143-102.606629 0-199.036343 39.928686-271.535543 112.393143-149.677714 149.750857-149.714286 393.393371-0.071314 543.144229C312.965486 728.376686 409.428114 768.305371 512 768.305371s198.999771-39.963429 271.535543-112.4992C933.249829 506.126629 933.249829 262.517029 783.535543 112.731429zM768.285257 649.519543c-1.214171 0-2.428343-0.250514-3.536457-0.749714l0.107886 0.107886L442.3936 455.4112l-195.035429-325.035886c-0.821029-3.000686-0.393143-6.392686 2.0352-8.714971 1.678629-1.642057 3.856457-2.428343 6.036114-2.428343 0.786286 0 1.536 0.107886 2.285714 0.285257l325.429029 195.214629 193.536 322.5728c1.214171 3.143314 0.4992 6.965029-2.0352 9.570743C772.893257 648.625371 770.570971 649.519543 768.285257 649.519543zM469.035886 428.732343l0.036571 0.036571 87.392914-87.392914-218.499657-131.072L469.035886 428.732343z"  horiz-adv-x="1024" />

    
    <glyph glyph-name="shouyeguhuakuandai" unicode="&#58927;" d="M638.7712 406.050133a129.706667 129.706667 0 0 1-253.474133 0h126.7712zM512 896a512 512 0 1 1 512-512A512 512 0 0 1 512 896z m322.901333-659.0464a68.266667 68.266667 0 0 0-34.133333-59.118933L546.133333 30.856533000000013a68.266667 68.266667 0 0 0-68.266666 0L223.232 177.83466699999997a72.430933 72.430933 0 0 0-34.133333 59.118933v15.496533a27.306667 27.306667 0 0 0 54.613333 0v-15.496533a18.773333 18.773333 0 0 1 6.826667-11.810133L505.173333 78.16533300000003a13.653333 13.653333 0 0 1 13.653334 0l254.634666 146.978134a13.653333 13.653333 0 0 1 6.826667 11.810133V531.0464a13.653333 13.653333 0 0 1-6.826667 11.810133L518.826667 689.834667a13.653333 13.653333 0 0 1-13.653334 0L250.538667 542.856533a13.653333 13.653333 0 0 1-6.826667-11.810133v-124.245333h86.084267a184.32 184.32 0 0 0 365.704533-10.581334 40.5504 40.5504 0 0 0-10.4448-31.1296 40.96 40.96 0 0 0-30.378667-13.653333H385.160533a129.706667 129.706667 0 0 1 241.186134-34.133333 27.306667 27.306667 0 1 0 47.786666-25.873067 184.32 184.32 0 0 0-344.814933 60.347733H243.234133a54.613333 54.613333 0 0 0-54.613333 54.613334V531.0464a68.266667 68.266667 0 0 0 34.133333 59.118933L477.866667 737.143467a68.266667 68.266667 0 0 0 68.266666 0l254.634667-146.978134a68.266667 68.266667 0 0 0 34.133333-59.118933z"  horiz-adv-x="1024" />

    
    <glyph glyph-name="speedup" unicode="&#58946;" d="M477.531 30.577v514.846l482.064-257.423zM545.514 288l-482.064-257.423v514.846z"  horiz-adv-x="1024" />

    
    <glyph glyph-name="slowdown" unicode="&#58947;" d="M545.514 30.577v514.846l-482.064-257.423zM477.531 288l482.064-257.423v514.846z"  horiz-adv-x="1024" />

    
    <glyph glyph-name="jiudian2" unicode="&#58948;" d="M370.956853 400.376405m0.089647 13.516503l0.445061 67.104657q0.089646 13.516503 13.606149 13.426857l67.104657-0.445062q13.516503-0.089646 13.426857-13.606149l-0.445061-67.104657q-0.089646-13.516503-13.606149-13.426857l-67.104658 0.445062q-13.516503 0.089646-13.426856 13.606149ZM244.262354 273.88383m0.087287 13.516519l0.433349 67.104734q0.087287 13.516518 13.603805 13.429231l67.104735-0.43335q13.516518-0.087287 13.429231-13.603805l-0.43335-67.104734q-0.087287-13.516518-13.603805-13.429231l-67.104734 0.433349q-13.516518 0.087287-13.429231 13.603806ZM370.89702 273.88383m0.087287 13.516519l0.43335 67.104734q0.087287 13.516518 13.603805 13.429231l67.104734-0.43335q13.516518-0.087287 13.429231-13.603805l-0.433349-67.104734q-0.087287-13.516518-13.603805-13.429231l-67.104734 0.433349q-13.516518 0.087287-13.429232 13.603806ZM244.301752 400.369669m0.089647 13.516502l0.445061 67.104658q0.089646 13.516503 13.606149 13.426856l67.104657-0.445061q13.516503-0.089646 13.426857-13.606149l-0.445062-67.104657q-0.089646-13.516503-13.606148-13.426857l-67.104658 0.445062q-13.516503 0.089646-13.426856 13.606148ZM244.330619 526.947923m0.087287 13.516518l0.433349 67.104734q0.087287 13.516518 13.603806 13.429231l67.104734-0.433349q13.516518-0.087287 13.429231-13.603806l-0.43335-67.104734q-0.087287-13.516518-13.603805-13.429231l-67.104734 0.43335q-13.516518 0.087287-13.429231 13.603805ZM370.965286 526.947923m0.087287 13.516518l0.433349 67.104734q0.087287 13.516518 13.603805 13.429231l67.104734-0.433349q13.516518-0.087287 13.429232-13.603806l-0.43335-67.104734q-0.087287-13.516518-13.603805-13.429231l-67.104734 0.43335q-13.516518 0.087287-13.429231 13.603805ZM512 896a512 512 0 1 1 512-512A512 512 0 0 1 512 896z m-10.0352-760.6272a40.96 40.96 0 0 0-40.96-40.277333l-216.132267 1.4336a40.96 40.96 0 0 0-40.277333 40.96l3.208533 495.342933a40.96 40.96 0 0 0 40.96 40.277333l216.132267-1.4336a40.5504 40.5504 0 0 0 40.209067-40.96z m314.026667 0.8192c0-22.596267-22.050133-40.96-48.9472-40.96h-21.367467a15.1552 15.1552 0 0 0-16.315733 13.653333V254.77120000000002a15.1552 15.1552 0 0 1-16.315734 13.653333H641.706667a15.1552 15.1552 0 0 1-16.315734-13.653333v-145.954133a15.1552 15.1552 0 0 0-16.315733-13.653334h-21.640533c-27.306667 0-48.9472 18.500267-48.9472 40.96V446.395733c0 22.596267 21.981867 40.96 48.9472 40.96h179.268266c26.897067 0 48.9472-18.432 48.9472-40.96zM791.893333 535.688533H559.786667a27.306667 27.306667 0 1 0 0 54.0672h232.106666a27.306667 27.306667 0 0 0 0-54.0672z"  horiz-adv-x="1024" />

    
    <glyph glyph-name="kuandaitianchong" unicode="&#59155;" d="M422.775467 323.106133m-40.96 0a40.96 40.96 0 1 1 81.92 0 40.96 40.96 0 1 1-81.92 0ZM298.120533 323.106133m-40.96 0a40.96 40.96 0 1 1 81.92 0 40.96 40.96 0 1 1-81.92 0ZM512 896a512 512 0 1 1 512-512A512 512 0 0 1 512 896z m327.68-751.684267a45.6704 45.6704 0 0 0-45.6704-45.6704H230.058667a45.6704 45.6704 0 0 0-45.738667 45.6704V241.527467a123.904 123.904 0 0 0 1.570133 19.592533l31.5392 117.691733a45.738667 45.738667 0 0 0 44.168534 34.133334H670.378667V645.12a27.306667 27.306667 0 0 0 54.613333 0v-232.584533h37.410133a45.738667 45.738667 0 0 0 44.168534-34.133334L838.109867 261.12a46.421333 46.421333 0 0 0 1.501866-11.8784zM758.9888 211.96799999999996h-486.741333a27.306667 27.306667 0 0 1 0-54.613333h486.741333a27.306667 27.306667 0 0 1 0 54.613333z"  horiz-adv-x="1024" />

    
    <glyph glyph-name="yibao" unicode="&#58903;" d="M481.962667 641.501867h222.276266v-135.236267H481.962667zM512 896a512 512 0 1 1 512-512A512 512 0 0 1 512 896zM331.639467 79.4624a27.306667 27.306667 0 0 0-54.613334 0V430.011733a555.485867 555.485867 0 0 0-51.131733-68.266666 27.306667 27.306667 0 1 0-40.96 36.2496c102.4 116.053333 145.681067 294.775467 146.090667 296.618666a27.306667 27.306667 0 1 0 53.316266-12.288 914.773333 914.773333 0 0 0-52.701866-150.596266z m486.877866 253.474133h-150.186666c24.917333-44.373333 78.4384-127.112533 144.725333-155.170133a27.306667 27.306667 0 0 0-21.230933-50.312533c-84.036267 35.566933-146.705067 134.144-173.6704 183.227733v-231.2192a27.306667 27.306667 0 0 0-54.613334 0V324.334933C540.672 281.05386699999997 472.610133 161.65546700000004 404.138667 117.75999999999999a27.306667 27.306667 0 1 0-29.4912 46.011733c47.104 30.173867 101.307733 115.165867 131.618133 169.1648h-122.88a27.306667 27.306667 0 0 0 0 54.613334h180.4288v64.1024h-95.573333a40.96 40.96 0 0 0-40.96 40.96V655.1552a40.96 40.96 0 0 0 40.96 40.96h249.582933a40.96 40.96 0 0 0 40.96-40.96v-162.542933a40.96 40.96 0 0 0-40.96-40.96H618.427733v-64.1024h200.0896a27.306667 27.306667 0 0 0 0-54.613334z"  horiz-adv-x="1024" />

    
    <glyph glyph-name="keche" unicode="&#58898;" d="M564.565333 509.1328H205.141333a13.653333 13.653333 0 0 1-13.312-10.922667l-12.765866-61.44a18.500267 18.500267 0 0 1 0-2.730666v-8.328534a13.653333 13.653333 0 0 1 13.653333-13.653333H564.565333a13.653333 13.653333 0 0 1 13.653334 13.653333V495.479467a13.653333 13.653333 0 0 1-13.653334 13.653333zM667.579733 513.2288H639.658667a13.653333 13.653333 0 0 1-13.653334-13.653333v-69.905067a13.653333 13.653333 0 0 1 13.653334-13.653333h19.2512a40.96 40.96 0 0 0 16.657066-3.549867l106.7008-36.795733c22.459733-7.714133 21.162667-2.321067 17.066667 15.9744-9.898667 44.8512-36.386133 118.510933-131.754667 121.582933zM512 896a512 512 0 1 1 512-512A512 512 0 0 1 512 896zM238.114133 209.10080000000005a51.2 51.2 0 1 0 51.2 51.2 51.2 51.2 0 0 0-51.2-51.2z m201.045334 0a51.2 51.2 0 1 0 51.2 51.2 51.2 51.2 0 0 0-51.2-51.2z m238.933333 0a51.2 51.2 0 1 0 51.2 51.2 51.2 51.2 0 0 0-51.2-51.2z m218.453333 228.5568a18.8416 18.8416 0 0 0-5.12-0.682667 20.48 20.48 0 0 0-19.797333 15.428267 46.626133 46.626133 0 0 1-21.7088 30.9248c-15.837867 9.147733-36.386133 8.3968-49.083733 6.826667 22.869333-31.9488 39.936-70.178133 39.936-103.901867v-39.1168a81.92 81.92 0 0 0-80.349867-81.92v1.2288a81.92 81.92 0 0 1-163.84 0v-1.297067H520.533333v1.297067a81.92 81.92 0 1 1-163.84 0v-1.297067h-36.386133v1.297067a81.92 81.92 0 0 1-163.84 0v-1.297067h-3.822933a40.96 40.96 0 0 0-40.96 40.96v116.053334a27.716267 27.716267 0 0 0 0.750933 6.280533L135.850667 527.36a40.96 40.96 0 0 0 39.867733 31.5392h535.552c16.861867 0 39.253333-13.653333 60.689067-34.679467A20.48 20.48 0 0 0 778.24 527.36c2.116267 0.546133 52.565333 14.336 92.296533-8.533333a86.903467 86.903467 0 0 0 40.96-56.251734 20.48 20.48 0 0 0-14.7456-24.917333z"  horiz-adv-x="1024" />

    
    <glyph glyph-name="heimingdan" unicode="&#59080;" d="M632.490667 224.25599999999997a30.173867 30.173867 0 0 1 0-60.279467h164.864a30.173867 30.173867 0 1 1 0 60.279467zM512 896a512 512 0 1 1 512-512A512 512 0 0 1 512 896z m-63.214933-184.32a167.594667 167.594667 0 1 0-168.072534-167.253333A168.686933 168.686933 0 0 0 448.785067 711.6800000000001z m0-635.6992a393.079467 393.079467 0 0 0-277.162667 112.4352A302.08 302.08 0 0 0 603.477333 326.86080000000004a171.554133 171.554133 0 0 1-34.133333-232.448 396.561067 396.561067 0 0 0-120.558933-18.705067z m266.24-19.114667a137.489067 137.489067 0 1 0 137.4208 137.489067A137.489067 137.489067 0 0 0 714.9568 56.32000000000005z"  horiz-adv-x="1024" />

    
    <glyph glyph-name="hangbanxinxi" unicode="&#58886;" d="M512 896a512 512 0 1 1 512-512A512 512 0 0 1 512 896z m259.413333-564.906667L615.355733 336.21333300000003a16.315733 16.315733 0 0 1-13.653333-6.826666l-150.186667-215.6544a19.319467 19.319467 0 0 0-15.633066-8.055467h-30.72a19.114667 19.114667 0 0 0-17.339734 27.306667l88.132267 201.045333a5.051733 5.051733 0 0 1 0 4.778667 5.12 5.12 0 0 1-4.096 2.389333l-146.6368 4.9152A16.315733 16.315733 0 0 1 309.384533 336.21333300000003l-60.6208-142.609066a18.773333 18.773333 0 0 0-16.657066-12.219734h-15.223467a17.544533 17.544533 0 0 0-13.653333 6.417067 24.849067 24.849067 0 0 0-5.12 19.797333l31.266133 173.192534a15.086933 15.086933 0 0 1 0 5.802666l-31.061333 157.969067a25.053867 25.053867 0 0 0 5.12 19.933867 17.544533 17.544533 0 0 0 13.653333 6.826666H232.106667a18.8416 18.8416 0 0 0 16.9984-12.356266L305.902933 431.786667A16.247467 16.247467 0 0 1 320.853333 421.888l151.1424 5.051733a6.007467 6.007467 0 0 1 4.983467 2.8672 6.144 6.144 0 0 1 0.4096 5.7344L387.822933 635.3578669999999a19.114667 19.114667 0 0 0 17.408 27.306666h30.651734a19.114667 19.114667 0 0 0 15.5648-8.055466l153.668266-220.637867a5.5296 5.5296 0 0 1 4.846934-2.4576l161.450666 5.393067c32.768 0 54.613333-21.230933 54.613334-52.906667s-21.9136-52.906667-54.613334-52.906667z"  horiz-adv-x="1025" />

    
    <glyph glyph-name="jiudian" unicode="&#59063;" d="M512 896a512 512 0 1 1 512-512A512 512 0 0 1 512 896zM358.6048 538.077867A77.346133 77.346133 0 1 0 281.258667 460.731733a77.277867 77.277867 0 0 0 77.346133 77.346134z m490.837333-353.553067a30.651733 30.651733 0 1 0-61.44 0v30.72a30.651733 30.651733 0 0 1-30.242133 30.651733H266.24a30.651733 30.651733 0 0 1-30.651733-30.651733v-30.72a30.651733 30.651733 0 0 0-61.44 0V583.4752a30.651733 30.651733 0 0 0 61.44 0v-245.76h245.76V552.8234669999999h245.76a122.88 122.88 0 0 0 122.88-122.88z"  horiz-adv-x="1024" />

    
    <glyph glyph-name="shuru" unicode="&#59157;" d="M36.2496-98.7136c-6.4512 0-12.6976 2.6624-17.1008 7.5776-5.4272 5.9392-7.3728 14.2336-5.2224 22.016l67.8912 243.5072c1.1264 3.8912 3.1744 7.3728 5.9392 10.24L766.8736 863.6416c17.92 17.92 47.0016 17.92 64.8192 0l162.5088-162.5088c17.92-17.92 17.92-47.0016 0-64.8192l-89.088-89.088c-4.4032-4.4032-10.24-6.8608-16.4864-6.8608-6.144 0-12.0832 2.4576-16.4864 6.8608L739.2256 680.2432c-9.1136 9.1136-9.1136 23.8592 0 32.8704 9.1136 9.1136 23.8592 9.1136 32.8704 0l116.5312-116.5312 72.192 72.192L799.232 830.2592 124.928 155.8528 68.7104-45.7728l218.5216 40.8576 404.48 404.48c6.656 7.168 79.5648 83.456 169.0624 90.0096 12.8 0.9216 23.9616-8.704 24.8832-21.504 0.9216-12.8-8.704-23.9616-21.504-24.8832-73.6256-5.4272-137.9328-74.752-138.5472-75.4688-0.2048-0.2048-0.512-0.512-0.7168-0.7168L314.9824-42.8032c-3.2768-3.2768-7.5776-5.5296-12.1856-6.4512L40.5504-98.304C39.1168-98.6112 37.6832-98.7136 36.2496-98.7136z"  horiz-adv-x="1024" />

    
    <glyph glyph-name="kuaidi" unicode="&#58908;" d="M716.3904 500.5312h-59.118933a19.524267 19.524267 0 0 1-18.158934-20.48v-66.833067a19.524267 19.524267 0 0 1 18.158934-20.48h113.664a19.524267 19.524267 0 0 1 18.158933 20.48l-0.6144 10.717867c-3.413333 37.546667-31.9488 76.5952-72.0896 76.5952zM379.972267 570.641067L304.264533 458.9568h61.166934l-22.254934-91.7504 72.567467 120.149333h-55.7056l19.933867 83.285334zM512 896a512 512 0 1 1 512-512A512 512 0 0 1 512 896zM268.4928 223.43679999999995a87.8592 87.8592 0 0 1 0.477867-9.557333H218.453333a27.306667 27.306667 0 0 0-27.306666 27.306666v58.9824h113.390933a99.396267 99.396267 0 0 1-36.0448-76.731733zM367.138133 172.373333a53.179733 53.179733 0 1 0 53.179734 53.111467 53.111467 53.111467 0 0 0-53.179734-53.111467z m172.509867 69.0176a27.306667 27.306667 0 0 0-27.306667-27.306666h-44.8512a87.8592 87.8592 0 0 1 0.477867 9.557333 99.396267 99.396267 0 0 1-36.0448 76.731733h107.7248z m0 101.102934H191.146667V553.301333a42.530133 42.530133 0 0 0 42.530133 42.325334h263.441067a42.530133 42.530133 0 0 0 42.530133-42.530134z m164.317867-170.666667a53.179733 53.179733 0 1 0 53.179733 53.111467 53.111467 53.111467 0 0 0-53.179733-52.565334zM832.853333 255.31733299999996c0-13.653333-22.3232-25.258667-35.6352-27.306666a103.287467 103.287467 0 0 1 0.6144 10.376533 94.8224 94.8224 0 0 1-189.576533 0 84.1728 84.1728 0 0 1 0.6144-10.24 27.306667 27.306667 0 0 0-22.596267 27.306667V513.7066669999999a27.306667 27.306667 0 0 0 27.306667 27.306666h133.597867c56.251733 0 85.742933-46.353067 85.469866-169.847466z"  horiz-adv-x="1024" />

    
    <glyph glyph-name="weishangxueyuan" unicode="&#59073;" d="M293.137067 466.5344H249.173333a16.110933 16.110933 0 0 1-14.677333-17.271467v-20.957866A16.110933 16.110933 0 0 1 249.173333 411.306667h43.963734a16.110933 16.110933 0 0 1 14.609066 17.271466v20.6848a16.110933 16.110933 0 0 1-14.609066 17.271467zM496.4352 625.8688h-43.963733a15.906133 15.906133 0 0 1-14.677334-16.9984v-20.48a15.9744 15.9744 0 0 1 14.677334-16.9984h43.963733a15.9744 15.9744 0 0 1 14.609067 16.9984v20.48a15.906133 15.906133 0 0 1-14.609067 16.9984zM603.915537 448.045736m15.078496 5.274506l45.235488 15.823518q15.078496 5.274506 20.353002-9.80399l6.401537-18.300397q5.274506-15.078496-9.803989-20.353002l-45.235488-15.823518q-15.078496-5.274506-20.353002 9.80399l-6.401538 18.300397q-5.274506 15.078496 9.80399 20.353002ZM512 896a512 512 0 1 1 512-512A512 512 0 0 1 512 896zM336.622933 117.75999999999999a29.354667 29.354667 0 0 0-29.354666-29.354667H234.018133A29.354667 29.354667 0 0 0 204.8 117.75999999999999V476.228267a29.2864 29.2864 0 0 0 29.2864 29.2864H307.2a29.2864 29.2864 0 0 0 29.354667-29.2864z m203.298134 0a29.422933 29.422933 0 0 0-29.354667-29.354667H437.316267a29.354667 29.354667 0 0 0-29.2864 29.354667V651.127467a29.2864 29.2864 0 0 0 29.2864 29.354666h73.250133a29.354667 29.354667 0 0 0 29.354667-29.354666z m259.413333-4.3008L730.453333 89.22453299999995a29.2864 29.2864 0 0 0-37.341866 17.954134L574.737067 445.44a29.2864 29.2864 0 0 0 18.0224 37.341867L662.186667 506.88a29.2864 29.2864 0 0 0 37.2736-18.0224l118.442666-338.397867a29.2864 29.2864 0 0 0-18.295466-37.0688z"  horiz-adv-x="1024" />

    
    <glyph glyph-name="shangxueyuan" unicode="&#58961;" d="M512 896a512 512 0 1 1 512-512A512 512 0 0 1 512 896z m-21.777067-750.523733a21.2992 21.2992 0 0 0-24.1664-20.48c-79.735467 36.864-138.103467 50.5856-252.245333 44.2368-12.561067 0.341333-17.066667 10.308267-17.066667 20.48V615.2192c0 12.765867 7.304533 15.496533 24.1664 20.48 131.072 26.487467 212.5824-25.8048 252.586667-44.2368 11.4688-5.461333 17.066667-10.308267 17.066667-20.48z m337.032534 44.2368c0-9.966933-4.5056-19.933867-17.066667-20.48-114.141867 6.3488-172.509867-7.3728-252.245333-44.2368a21.2992 21.2992 0 0 0-24.1664 20.48V570.9824c0 9.966933 5.597867 14.813867 17.066666 20.48 39.662933 18.432 121.173333 70.724267 252.586667 44.2368 16.861867-4.778667 24.1664-7.509333 24.1664-20.48z"  horiz-adv-x="1024" />

    
    <glyph glyph-name="iconzhuanqu45" unicode="&#59136;" d="M816.678616 574.224206c0.013894 0.056839 0.029051 0.114941 0.041682 0.171781 0.060628 0.257671 0.136414 0.512815 0.189464 0.770486 0.01642 0.083364 0.037893 0.165465 0.05305 0.250092 0.03284 0.170517 0.045471 0.343561 0.074522 0.515342 0.050524 0.295564 0.08968 0.593653 0.128835 0.891743 0.03663 0.275354 0.092206 0.550708 0.118731 0.826062 0.046734 0.472396 0.056839 0.948582 0.077049 1.424768 0.015157 0.357455 0.049261 0.716173 0.049261 1.073628s-0.03284 0.71491-0.049261 1.073628c-0.020209 0.476186-0.029051 0.953634-0.077049 1.424768-0.027788 0.275354-0.082101 0.550708-0.118731 0.826062-0.070733 0.526709-0.133888 1.054682-0.237461 1.573813-0.008842 0.042945-0.018946 0.08589-0.027788 0.130098-0.040419 0.200832-0.103574 0.4004-0.150308 0.601232-0.03663 0.157886-0.078312 0.313247-0.117468 0.46987-0.093469 0.372612-0.169254 0.750277-0.27788 1.116573-0.029051 0.099784-0.064418 0.197042-0.094732 0.295564-0.008842 0.027788-0.012631 0.055576-0.021473 0.083364-0.05305 0.166728-0.125046 0.319562-0.180622 0.485027-0.119994 0.357455-0.242514 0.713647-0.378928 1.067313-0.042945 0.109889-0.074522 0.223567-0.118731 0.333456-0.05305 0.132625-0.113678 0.262723-0.170517 0.395348-0.116204 0.274091-0.251355 0.533025-0.376401 0.8008-0.103574 0.221041-0.200832 0.443345-0.310721 0.66186-0.058102 0.116204-0.104837 0.237461-0.165465 0.352403-0.070733 0.135151-0.146519 0.269039-0.219778 0.402926-0.194516 0.358718-0.413031 0.69849-0.623967 1.044577-0.140203 0.231146-0.267775 0.46987-0.41682 0.697227-0.077049 0.117468-0.156623 0.233672-0.236198 0.349876-0.229883 0.338509-0.478712 0.658071-0.722489 0.983949-0.180622 0.239987-0.352403 0.485027-0.541866 0.718699-0.071996 0.088416-0.143992 0.178096-0.218515 0.266512-0.242514 0.291774-0.501447 0.565865-0.756592 0.845009-0.24504 0.269039-0.487553 0.540603-0.743961 0.799537-0.047997 0.049261-0.088416 0.10231-0.137677 0.150308-0.021473 0.021473-0.045471 0.039156-0.066944 0.060628-0.231146 0.226093-0.474923 0.435767-0.713647 0.653019-0.310721 0.282933-0.621441 0.565865-0.947319 0.833641-0.08589 0.070733-0.166728 0.149045-0.253881 0.217252-0.203358 0.162939-0.421873 0.306931-0.630283 0.463555-0.357455 0.267775-0.713647 0.536814-1.087522 0.786906-0.341035 0.229883-0.690911 0.43703-1.040788 0.647966-0.344824 0.20841-0.687122 0.418083-1.04584 0.610073-0.43703 0.236198-0.882901 0.445871-1.330036 0.654282-0.295564 0.136414-0.584812 0.280406-0.887954 0.406716-0.521657 0.218515-1.052156 0.406716-1.583917 0.588601-0.200832 0.068207-0.390295 0.156623-0.593653 0.219778-0.059365 0.018946-0.118731 0.027788-0.179359 0.046734-0.090943 0.027788-0.178096 0.064418-0.270302 0.090943-0.396611 0.116204-0.799537 0.198305-1.199937 0.2943-0.065681 0.015157-0.130098 0.031577-0.194516 0.047997-0.256408 0.060628-0.512815 0.136414-0.770486 0.188201-0.083364 0.017683-0.166728 0.037893-0.250092 0.054313-0.162939 0.030314-0.328404 0.042945-0.491343 0.070733-0.304405 0.051787-0.611336 0.092206-0.918268 0.132625-0.274091 0.03663-0.548182 0.090943-0.82101 0.118731-0.473659 0.046734-0.952371 0.055576-1.431083 0.077049-0.356192 0.015157-0.713647 0.049261-1.068576 0.049261-0.356192 0-0.71491-0.03284-1.072365-0.049261-0.476186-0.020209-0.953634-0.029051-1.426031-0.077049-0.275354-0.027788-0.551971-0.082101-0.828588-0.119994-0.526709-0.070733-1.054682-0.133888-1.575076-0.237461-0.041682-0.007579-0.082101-0.017683-0.12252-0.026525-0.213463-0.044208-0.426925-0.109889-0.640388-0.15915-0.117468-0.026525-0.233672-0.059365-0.35114-0.087153-0.401663-0.099784-0.808379-0.181885-1.20499-0.300616-0.095995-0.027788-0.190727-0.061892-0.286722-0.092206-0.029051-0.008842-0.059365-0.013894-0.08968-0.023999l-560.294952-176.624461c-0.274091-0.08589-0.529236-0.202095-0.797011-0.296827-0.445871-0.157886-0.893006-0.311984-1.328773-0.493869-0.386506-0.160413-0.756592-0.342298-1.13173-0.520394-0.362507-0.171781-0.725015-0.341035-1.078681-0.530499-0.395348-0.210936-0.775538-0.442082-1.155729-0.671965-0.319562-0.193253-0.639125-0.38398-0.949845-0.59239-0.370086-0.246303-0.725015-0.509026-1.078681-0.774275-0.306931-0.229883-0.613863-0.458502-0.911952-0.702279-0.322088-0.263986-0.631546-0.54313-0.938477-0.822273-0.306931-0.27788-0.611336-0.557024-0.905637-0.851324-0.272828-0.274091-0.530499-0.558287-0.789432-0.842482-0.296827-0.325878-0.591127-0.653019-0.872797-0.99658-0.237461-0.289248-0.457239-0.588601-0.680807-0.887954-0.266512-0.357455-0.531762-0.712384-0.780591-1.086259-0.222304-0.333456-0.425662-0.67828-0.631546-1.023104-0.213463-0.354929-0.429451-0.707331-0.627757-1.076154-0.223567-0.415557-0.419347-0.843745-0.617652-1.27067-0.121257-0.258934-0.26146-0.502711-0.373875-0.76796-0.027788-0.066944-0.046734-0.133888-0.073259-0.200832-0.198305-0.477449-0.365034-0.967528-0.534288-1.456345-0.104837-0.303142-0.226093-0.605021-0.318299-0.909426-0.143992-0.472396-0.252618-0.954898-0.368823-1.436136-0.079575-0.328404-0.17557-0.655545-0.241251-0.985212-0.087153-0.440819-0.13894-0.889217-0.202095-1.336351-0.05305-0.370086-0.125046-0.741435-0.160413-1.111521-0.039156-0.401663-0.041682-0.809642-0.061892-1.213831-0.020209-0.41682-0.056839-0.834904-0.056839-1.249198 0-0.361244 0.035367-0.725015 0.051787-1.087522 0.020209-0.462292 0.027788-0.925846 0.074522-1.384349 0.03284-0.324615 0.095995-0.650492 0.141466-0.97637 0.06947-0.498921 0.131362-0.999106 0.231146-1.491712 0.061892-0.305668 0.150308-0.610073 0.223567-0.915742 0.12252-0.510289 0.242514-1.020578 0.396611-1.522026 0.021473-0.066944 0.031577-0.135151 0.05305-0.203358 0.161676-0.512815 0.35114-1.007947 0.541866-1.503079 0.050524-0.130098 0.08968-0.263986 0.141466-0.394085 0.291774-0.722489 0.616389-1.422242 0.968792-2.104311 0.051787-0.10231 0.112415-0.198305 0.166728-0.29809 0.305668-0.573444 0.62902-1.13173 0.973844-1.673597 0.112415-0.176833 0.232409-0.346087 0.348613-0.520394 0.308194-0.458502 0.626494-0.905637 0.961213-1.338877 0.149045-0.194516 0.300616-0.385243 0.455976-0.57597 0.333456-0.406716 0.680807-0.799537 1.036998-1.183517 0.169254-0.181885 0.333456-0.36756 0.507763-0.544393 0.455976-0.462292 0.928373-0.903111 1.415926-1.32751 0.15536-0.135151 0.313247-0.267775 0.472396-0.399137 0.49008-0.404189 0.994053-0.791959 1.510658-1.158255 0.229883-0.161676 0.468607-0.313247 0.704805-0.468607 0.42061-0.276617 0.846272-0.541866 1.282038-0.791959 0.237461-0.136414 0.474923-0.271565 0.717436-0.4004 0.546919-0.291774 1.105205-0.560813 1.672334-0.812168 0.112415-0.050524 0.214726-0.111152 0.328404-0.15915l236.923207-100.745476-13.069212-13.196785c-9.816751-9.914009-9.739702-25.908542 0.174307-35.725292 4.924795-4.876798 11.350144-7.312039 17.77423-7.312039 6.506187 0 13.01111 2.498396 17.951063 7.486346l11.655812 11.769491 98.901362-232.585749c0.55955-1.317405 1.227725-2.553972 1.97295-3.722332 0.093469-0.145256 0.19199-0.286722 0.289248-0.429451 0.329667-0.495132 0.675754-0.975107 1.035735-1.441188 0.113678-0.146519 0.227357-0.293037 0.343561-0.438293 0.413031-0.509026 0.841219-1.000369 1.289617-1.471502 0.068207-0.071996 0.131362-0.147782 0.200832-0.219778 0.515342-0.529236 1.053419-1.033209 1.609179-1.511921 0.157886-0.136414 0.325878-0.265249 0.488817-0.397874 0.409242-0.334719 0.824799-0.656808 1.252987-0.965002 0.214726-0.15536 0.430714-0.308194 0.651755-0.457239 0.479975-0.322088 0.970055-0.626494 1.470239-0.915742 0.143992-0.082101 0.279143-0.174307 0.424399-0.253881 0.636598-0.35114 1.29088-0.665649 1.954003-0.961213 0.205884-0.090943 0.415557-0.17557 0.625231-0.26146 0.562076-0.232409 1.13173-0.444608 1.710226-0.635335 0.113678-0.037893 0.219778-0.087153 0.334719-0.123783 0.060628-0.018946 0.121257-0.031577 0.183148-0.050524 0.387769-0.119994 0.781854-0.221041 1.175939-0.320825 0.219778-0.056839 0.440819-0.121257 0.660597-0.171781 0.402926-0.090943 0.810905-0.162939 1.218884-0.234935 0.212199-0.037893 0.425662-0.08589 0.639125-0.117468 0.421873-0.063155 0.848798-0.103574 1.275723-0.145256 0.195779-0.018946 0.392822-0.050524 0.588601-0.064418 0.569654-0.042945 1.140572-0.060628 1.714016-0.064418 0.049261 0 0.097258-0.005052 0.146519-0.005052 0 0 0.001263 0 0.002526 0s0.001263 0 0.002526 0c0.006315 0 0.013894 0.001263 0.020209 0.001263 0.754066 0 1.501816 0.042945 2.245777 0.111152 0.237461 0.021473 0.474923 0.056839 0.713647 0.08589 0.531762 0.064418 1.059734 0.141466 1.58518 0.238724 0.257671 0.047997 0.515342 0.098521 0.773012 0.15536 0.560813 0.12252 1.11531 0.265249 1.664755 0.424399 0.194516 0.055576 0.389032 0.103574 0.581022 0.164202 0.746487 0.236198 1.481607 0.503974 2.201569 0.807116 0.029051 0.012631 0.059365 0.020209 0.08968 0.03284 0.114941 0.049261 0.218515 0.111152 0.332193 0.161676 0.564602 0.250092 1.120363 0.519131 1.664755 0.809642 0.24504 0.131362 0.485027 0.266512 0.725015 0.404189 0.431977 0.248829 0.855113 0.511552 1.271934 0.785643 0.238724 0.157886 0.481238 0.310721 0.71491 0.474923 0.507763 0.359981 1.001632 0.740172 1.484133 1.136783 0.17557 0.143992 0.34735 0.289248 0.517868 0.439556 0.478712 0.415557 0.94353 0.848798 1.390664 1.302248 0.178096 0.180622 0.344824 0.368823 0.516605 0.554497 0.352403 0.380191 0.695964 0.76796 1.026894 1.170886 0.157886 0.193253 0.311984 0.387769 0.463555 0.584812 0.333456 0.430714 0.650492 0.875323 0.956161 1.331299 0.117468 0.17557 0.238724 0.34735 0.35114 0.524183 0.344824 0.541866 0.668176 1.101416 0.973844 1.67486 0.05305 0.099784 0.113678 0.195779 0.165465 0.296827 0.35114 0.68207 0.677017 1.384349 0.970055 2.1081 0.049261 0.119994 0.084627 0.243777 0.131362 0.365034 0.194516 0.502711 0.387769 1.006684 0.551971 1.527078l176.623198 560.296215c0.018946 0.059365 0.027788 0.119994 0.046734 0.179359 0.027788 0.08968 0.064418 0.176833 0.090943 0.266512C816.496731 573.403196 816.580095 573.814964 816.678616 574.224206zM304.695668 399.998357l397.625131 125.345454-205.174128-207.181181L304.695668 399.998357zM736.68953 488.245538l-124.691173-395.549871-80.213916 188.640254L736.68953 488.245538z"  horiz-adv-x="1024" />

    
    <glyph glyph-name="tixing" unicode="&#58965;" d="M512.180224 812c-282.770432 0-512-229.229568-512-512s229.229568-512 512-512c282.769408 0 512 229.229568 512 512S794.948608 812 512.180224 812zM512.048128 630.752c33.933312 0.072704 61.499392-27.375616 61.572096-61.308928 0.070656-33.931264-27.37664-61.498368-61.309952-61.570048s-61.498368 27.377664-61.570048 61.309952C450.666496 603.11424 478.114816 630.68032 512.048128 630.752zM512.669696-20.592896c-33.932288-0.07168-61.484032 20.501504-61.538304 45.949952l-0.784384 368.638976c-0.055296 25.449472 27.409408 46.138368 61.340672 46.211072 33.932288 0.07168 61.484032-20.50048 61.538304-45.949952l0.785408-368.64C574.066688 0.168704 546.601984-20.520192 512.669696-20.592896z"  horiz-adv-x="1025" />

    
    <glyph glyph-name="jiashizheng" unicode="&#58884;" d="M512 896a512 512 0 1 1 512-512A512 512 0 0 1 512 896zM246.784 606.139733L415.744 679.799467c21.981867 9.557333 40.209067 5.12 57.685333-14.1312L529.681067 602.4533329999999a9.6256 9.6256 0 0 0-8.3968-13.653333H252.1088a9.6256 9.6256 0 0 0-5.3248 17.339733zM819.2 125.26933299999996a41.915733 41.915733 0 0 0-41.915733-41.915733H246.715733A41.915733 41.915733 0 0 0 204.8 125.26933299999996V502.237867a41.915733 41.915733 0 0 0 41.915733 41.915733h530.568534a41.915733 41.915733 0 0 0 41.915733-41.915733zM687.172267 268.76586699999996h-39.799467l6.826667 46.216533a30.9248 30.9248 0 0 1-30.651734 35.703467H467.1488c3.2768 0 6.826667 0.6144 10.103467 1.092266 44.8512 5.597867 47.172267 83.626667 46.08 116.9408a21.777067 21.777067 0 0 1-21.7088 20.957867H426.052267l1.774933 24.029867-43.281067 3.140266-1.979733-27.306666H334.506667v-43.4176h42.3936c-0.682667-1.774933-1.2288-3.618133-2.116267-5.461334-18.568533-33.109333-39.1168-56.866133-53.6576-62.0544l14.7456-40.96c32.768 11.810133 60.074667 51.541333 77.550933 82.7392l0.750934 1.501867a106.154667 106.154667 0 0 1 8.055466 24.3712h57.480534c-1.092267-23.483733-5.188267-45.192533-10.0352-51.677867a217.565867 217.565867 0 0 0-43.895467-1.160533l-4.573867-42.734933h-46.557866v-43.4176h234.7008l-5.870934-38.5024H432.196267l4.7104 17.8176-41.915734 11.127466-10.513066-39.389866A26.146133 26.146133 0 0 1 409.6 225.34826699999996h260.164267c0-22.528-0.6144-35.498667-0.750934-39.3216-3.4816-16.520533-11.400533-35.6352-22.9376-37.4784H560.196267v-43.4176h89.224533c31.061333 2.935467 53.794133 29.764267 62.395733 73.659733v0.8192c0 2.116267 0.750933 4.778667 1.365334 62.600533a26.2144 26.2144 0 0 1-26.2144 26.487467zM331.025067 209.442133h298.325333v-43.4176h-298.325333zM687.5136 503.1936H570.436267a29.013333 29.013333 0 0 1-28.945067-28.945067v-80.896a29.0816 29.0816 0 0 1 28.945067-29.013333h117.077333a29.0816 29.0816 0 0 1 29.2864 29.013333V474.248533a29.013333 29.013333 0 0 1-29.2864 28.945067z m-14.472533-95.573333H584.9088V459.776h88.132267z"  horiz-adv-x="1071" />

    
    <glyph glyph-name="cengjishezhi" unicode="&#58987;" d="M0 513.333333l512 256 512-256-512-256zM512-9.674667l416 208.341333 96-48-512-256.341333-512 256.341333 96 48zM512 171.658667l416 208 96-48-512-256-512 256 96 48zM833.322667 513.333333l-321.322667 160.682667-321.322667-160.682667 321.322667-160.682667z"  horiz-adv-x="1024" />

    
    <glyph glyph-name="baocun" unicode="&#59081;" d="M930.304 718.304C838.301538 810.306462 820.302769 812 787.692308 812L118.153846 812C52.932923 812 0 759.106462 0 693.846154l0-787.692308c0-65.260308 52.932923-118.153846 118.153846-118.153846l787.692308 0c65.220923 0 118.153846 52.893538 118.153846 118.153846L1024 575.692308C1024 608.302769 1022.306462 626.301538 930.304 718.304zM196.923077 733.230769c0 21.700923 17.683692 39.384615 39.384615 39.384615l512 0c21.700923 0 39.384615-17.683692 39.384615-39.384615l0-157.538462c0-21.700923-17.683692-39.384615-39.384615-39.384615L236.307692 536.307692C214.606769 536.307692 196.923077 553.991385 196.923077 575.692308L196.923077 733.230769zM905.846154-133.230769c0-21.700923-17.683692-39.384615-39.384615-39.384615L157.538462-172.615385c-21.700923 0-39.384615 17.683692-39.384615 39.384615L118.153846 378.769231c0 21.700923 17.683692 39.384615 39.384615 39.384615l708.923077 0c21.700923 0 39.384615-17.683692 39.384615-39.384615L905.846154-133.230769zM708.923077 575.692308l-118.153846 0L590.769231 733.230769l118.153846 0L708.923077 575.692308z"  horiz-adv-x="1024" />

    
    <glyph glyph-name="flowparallel1" unicode="&#59106;" d="M430.08 691.2c0-51.883008-24.576-89.428992-73.728-112.64 0 0 0-387.072 0-387.072 49.152-23.211008 73.728-61.44 73.728-114.688 0-34.132992-11.947008-63.147008-35.84-87.04-23.892992-23.892992-52.907008-35.84-87.04-35.84-34.132992 0-63.147008 11.947008-87.04 35.84-23.892992 23.892992-35.84 52.907008-35.84 87.04 0 53.248 24.576 91.476992 73.728 114.688 0 0 0 387.072 0 387.072-49.152 23.211008-73.728 60.756992-73.728 112.64 0 34.132992 11.947008 63.147008 35.84 87.04 23.892992 23.892992 52.907008 35.84 87.04 35.84 34.132992 0 63.147008-11.947008 87.04-35.84 23.892992-23.892992 35.84-52.907008 35.84-87.04 0 0 0 0 0 0m-51.2-614.4c0 20.48-7.168 37.547008-21.504 51.2-14.336 13.652992-31.060992 20.48-50.176 20.48-19.115008 0-35.499008-6.827008-49.152-20.48-13.652992-13.652992-20.48-30.72-20.48-51.2 0-19.115008 6.827008-35.499008 20.48-49.152 13.652992-13.652992 30.036992-20.48 49.152-20.48 19.115008 0 35.84 6.827008 50.176 20.48 14.336 13.652992 21.504 30.036992 21.504 49.152 0 0 0 0 0 0m-71.68 544.768c19.115008 0 35.84 6.827008 50.176 20.48 14.336 13.652992 21.504 30.036992 21.504 49.152 0 20.48-7.168 37.547008-21.504 51.2-14.336 13.652992-31.060992 20.48-50.176 20.48-19.115008 0-35.499008-6.827008-49.152-20.48-13.652992-13.652992-20.48-30.72-20.48-51.2 0-19.115008 6.827008-35.499008 20.48-49.152 13.652992-13.652992 30.036992-20.48 49.152-20.48 0 0 0 0 0 0m458.752-430.08c49.152-23.211008 73.728-61.44 73.728-114.688 0-34.132992-11.947008-63.147008-35.84-87.04-23.892992-23.892992-52.907008-35.84-87.04-35.84-34.132992 0-63.147008 11.947008-87.04 35.84-23.892992 23.892992-35.84 52.907008-35.84 87.04 0 53.248 24.576 91.476992 73.728 114.688 0 0 0 387.072 0 387.072-49.152 23.211008-73.728 60.756992-73.728 112.64 0 34.132992 11.947008 63.147008 35.84 87.04 23.892992 23.892992 52.907008 35.84 87.04 35.84 34.132992 0 63.147008-11.947008 87.04-35.84 23.892992-23.892992 35.84-52.907008 35.84-87.04 0-51.883008-24.576-89.428992-73.728-112.64 0 0 0-387.072 0-387.072 0 0 0 0 0 0m-118.784 499.712c0-19.115008 6.827008-35.499008 20.48-49.152 13.652992-13.652992 30.036992-20.48 49.152-20.48 19.115008 0 35.84 6.827008 50.176 20.48 14.336 13.652992 21.504 30.036992 21.504 49.152 0 20.48-7.168 37.547008-21.504 51.2-14.336 13.652992-31.060992 20.48-50.176 20.48-19.115008 0-35.499008-6.827008-49.152-20.48-13.652992-13.652992-20.48-30.72-20.48-51.2 0 0 0 0 0 0m69.632-684.032c19.115008 0 35.84 6.827008 50.176 20.48 14.336 13.652992 21.504 30.036992 21.504 49.152 0 20.48-7.168 37.547008-21.504 51.2-14.336 13.652992-31.060992 20.48-50.176 20.48-19.115008 0-35.499008-6.827008-49.152-20.48-13.652992-13.652992-20.48-30.72-20.48-51.2 0-19.115008 6.827008-35.499008 20.48-49.152 13.652992-13.652992 30.036992-20.48 49.152-20.48 0 0 0 0 0 0"  horiz-adv-x="1024" />

    
    <glyph glyph-name="tao" unicode="&#58957;" d="M512 896a512 512 0 1 1 512-512A512 512 0 0 1 512 896z m168.3456-409.6l53.8624 127.658667a27.306667 27.306667 0 0 0 50.312533-21.230934L730.453333 465.3056a27.306667 27.306667 0 0 0-25.1904-16.725333 26.487467 26.487467 0 0 0-10.581333 2.184533 27.306667 27.306667 0 0 0-14.336 35.6352z m-47.240533 218.453333h0.6144a27.306667 27.306667 0 0 0 27.306666-26.692266l4.5056-218.043734 137.8304-99.5328a27.306667 27.306667 0 0 0-16.042666-49.425066 26.897067 26.897067 0 0 0-15.9744 5.188266l-104.379734 75.093334 3.549867-172.4416a4.573867 4.573867 0 0 1 4.096-4.5056c17.066667-2.048 48.401067-3.2768 66.7648 11.537066a50.7904 50.7904 0 0 1 16.7936 36.932267 27.306667 27.306667 0 1 0 54.613333-5.12c-3.072-32.017067-15.428267-57.002667-36.932266-74.3424-23.9616-19.319467-54.613333-24.849067-81.5104-24.849067a220.091733 220.091733 0 0 0-26.0096 1.570134 59.528533 59.528533 0 0 0-52.224 57.617066l-9.693867 458.9568A27.306667 27.306667 0 0 0 633.105067 704.853333zM409.122133 617.949867a27.306667 27.306667 0 0 0 33.450667-19.182934L480.529067 459.093333a27.306667 27.306667 0 0 0-19.2512-33.518933 28.740267 28.740267 0 0 0-6.826667-0.955733 27.306667 27.306667 0 0 0-26.282667 20.48l-38.2976 139.332266a27.306667 27.306667 0 0 0 19.2512 33.518934z m-32.494933-277.2992l126.225067 88.746666v4.573867c7.304533 117.3504 1.570133 233.0624 1.501866 234.222933a27.306667 27.306667 0 1 0 54.613334 2.798934c0-4.846933 5.9392-119.6032-1.501867-239.957334-11.0592-177.493333-43.690667-267.264-102.4-282.555733a26.0096 26.0096 0 0 0-6.826667-0.887467 27.306667 27.306667 0 0 0-6.826666 53.725867c4.232533 1.092267 37.4784 14.404267 54.613333 157.013333l-88.064-62.395733a27.306667 27.306667 0 0 0-15.633067-4.9152 27.306667 27.306667 0 0 0-15.701333 49.629867zM285.354667 665.873067a27.306667 27.306667 0 0 0 33.314133-19.524267l34.6112-132.983467a27.306667 27.306667 0 0 0-19.592533-33.314133 26.897067 26.897067 0 0 0-6.826667-0.887467 27.306667 27.306667 0 0 0-26.4192 20.48l-34.6112 132.983467a27.306667 27.306667 0 0 0 19.524267 33.245867z m537.326933-592.0768A1423.428267 1423.428267 0 0 0 651.6736 63.14666699999998c-119.057067 0-266.24 16.657067-332.049067 90.658133l-75.093333-65.672533a27.306667 27.306667 0 0 0-35.976533 40.96l88.746666 77.6192V396.6976H204.8a27.306667 27.306667 0 0 0 0 54.613333h146.978133v-249.173333c61.44-101.512533 354.5088-88.200533 464.213334-74.205867a27.306667 27.306667 0 1 0 6.826666-54.135466z"  horiz-adv-x="1024" />

    
    <glyph glyph-name="jzjl01" unicode="&#59146;" d="M650.353724 704.554935 260.652334 704.554935c-29.191115 0-53.030526-23.717781-53.030526-53.030526l0-541.495189c0-29.191115 23.717781-53.030526 53.030526-53.030526l502.208813 0c29.191115 0 52.908897 23.717781 52.908897 53.030526l0 434.217841L650.353724 704.554935 650.353724 704.554935zM658.867799 658.335669l113.480461-110.682979-113.480461 0L658.867799 658.335669 658.867799 658.335669zM762.861147 84.730253 260.652334 84.730253c-14.109039 0-25.542226 11.433187-25.542226 25.542226L235.110108 651.646039c0 14.109039 11.433187 25.542226 25.542226 25.542226l370.727165 0 0-156.902245 156.902245 0L788.281744 110.272479C788.281744 96.16344 776.848557 84.730253 762.861147 84.730253L762.861147 84.730253zM329.251455 437.091341l357.712792 0 0-27.4883L329.251455 409.603041 329.251455 437.091341 329.251455 437.091341zM329.251455 336.381993l357.712792 0 0-27.4883L329.251455 308.893693 329.251455 336.381993 329.251455 336.381993zM329.251455 235.672645l357.712792 0 0-27.4883L329.251455 208.184345 329.251455 235.672645 329.251455 235.672645z"  horiz-adv-x="1024" />

    
    <glyph glyph-name="jiudian11" unicode="&#58949;" d="M512 896a512 512 0 1 1 512-512A512 512 0 0 1 512 896zM188.689067 544.494933a5.461333 5.461333 0 0 0 0 10.4448l47.786666 14.882134a72.840533 72.840533 0 0 1 47.786667 48.128l14.813867 47.786666a5.5296 5.5296 0 0 0 10.513066 0l14.813867-47.786666a72.840533 72.840533 0 0 1 47.786667-48.128l47.786666-14.882134a5.461333 5.461333 0 0 0 0-10.4448l-47.786666-14.813866a72.840533 72.840533 0 0 1-47.786667-48.128l-14.813867-47.786667a5.5296 5.5296 0 0 0-10.513066 0l-14.813867 47.786667a72.840533 72.840533 0 0 1-47.786667 48.128z m647.304533-400.930133c-12.9024-15.291733-25.463467-22.801067-38.434133-23.005867h-0.546134c-18.500267 0-31.470933 14.5408-44.032 28.535467a101.853867 101.853867 0 0 1-25.531733 23.210667c-25.326933 13.175467-56.593067-19.729067-56.866133-20.0704a13.653333 13.653333 0 0 0-17.681067-2.048c-46.8992-33.041067-183.432533-75.093333-277.230933-36.590934a279.210667 279.210667 0 0 0-115.165867 87.995734 247.1936 247.1936 0 0 1 185.207467 449.1264 278.869333 278.869333 0 0 0 143.36-18.705067c143.36-59.050667 211.626667-235.246933 152.302933-366.114133a324.4032 324.4032 0 0 0-36.4544-63.761067 55.227733 55.227733 0 0 0 34.816-5.597867 124.450133 124.450133 0 0 0 33.314133-29.218133c8.533333-9.6256 17.476267-19.6608 23.7568-19.456 4.437333 0 10.786133 4.778667 17.954134 13.653333a13.653333 13.653333 0 0 0 20.8896-17.6128z"  horiz-adv-x="1024" />

    
    <glyph glyph-name="anjiankou" unicode="&#58940;" d="M513.365333 642.4576a22.254933 22.254933 0 1 1 22.186667-22.254933 22.254933 22.254933 0 0 1-22.186667 22.254933zM512 896a512 512 0 1 1 512-512A512 512 0 0 1 512 896zM233.2672 94.07146699999998A28.4672 28.4672 0 0 0 204.8 122.53866700000003V291.49866699999995a28.4672 28.4672 0 0 0 28.4672 28.398933h69.358933v-197.358933a28.4672 28.4672 0 0 1 28.4672-28.4672zM607.573333 265.489067a13.653333 13.653333 0 0 0-27.306666 0V357.92213300000003a14.813867 14.813867 0 0 1-14.813867 14.813867H559.786667v-116.736a27.306667 27.306667 0 0 0-12.561067-22.9376v-125.883733a13.653333 13.653333 0 1 0-27.306667 0v121.514666h-16.930133v-121.514666a13.653333 13.653333 0 1 0-27.306667 0V233.81333299999994A27.306667 27.306667 0 0 0 464.213333 256v116.736h-5.3248A14.813867 14.813867 0 0 1 443.733333 357.92213300000003v-92.433066a13.653333 13.653333 0 1 0-27.306666 0V357.92213300000003a42.120533 42.120533 0 0 0 42.120533 42.120534h106.769067A42.120533 42.120533 0 0 0 607.573333 357.92213300000003zM471.04 462.848a40.96 40.96 0 1 0 40.96-40.96 40.96 40.96 0 0 0-40.96 40.96z m348.16-340.309333a28.4672 28.4672 0 0 0-28.4672-28.4672h-97.757867a28.125867 28.125867 0 0 1 23.552 12.561066 28.0576 28.0576 0 0 1 4.846934 15.906134V317.713067h-55.978667V580.1984H359.492267v-260.096h-56.866134V620.1344c0 30.993067 30.583467 54.613333 71.133867 54.613333h277.367467c40.5504 0 71.133867-23.3472 71.133866-54.613333v-300.373333h68.266667a28.4672 28.4672 0 0 0 28.672-28.2624z"  horiz-adv-x="1024" />

    
    <glyph glyph-name="kuaidi1" unicode="&#58950;" d="M512 896a512 512 0 1 1 512-512A512 512 0 0 1 512 896z m227.054933-582.792533v-100.5568a14.677333 14.677333 0 0 0-8.738133-12.4928L628.053333 159.40266699999995a5.802667 5.802667 0 0 0-8.738133 5.5296V265.4208A14.677333 14.677333 0 0 0 628.053333 277.9136l101.9904 40.96a5.802667 5.802667 0 0 0 9.0112-5.666133z m-20.48 34.133333L611.328 302.08000000000004a36.590933 36.590933 0 0 0-19.524267-1.570133L441.9584 336.21333300000003c-5.5296 1.297067-5.7344 4.164267-0.477867 6.417067l107.246934 45.4656a36.795733 36.795733 0 0 0 19.592533 1.570133l149.777067-35.84c5.5296-1.365333 5.5296-3.959467 0.477866-6.417066zM445.8496 704.853333a112.4352 112.4352 0 1 0-112.366933-112.366933A112.366933 112.366933 0 0 0 445.8496 704.853333z m105.472-607.573333a42.052267 42.052267 0 0 0-40.96-34.133333 42.5984 42.5984 0 0 0-7.714133 0.682666 1138.414933 1138.414933 0 0 0-165.410134 44.8512 289.792 289.792 0 0 0-68.266666 34.133334 97.006933 97.006933 0 0 0-30.1056 34.133333 65.809067 65.809067 0 0 0-6.826667 29.354667v2.321066a325.290667 325.290667 0 0 0 10.308267 62.190934c5.3248 21.7088 12.0832 44.305067 18.705066 64.853333 13.175467 40.96 25.873067 74.478933 26.077867 75.093333 14.404267 30.037333 38.161067 28.808533 82.261333 28.808534h120.4224c54.203733 0 77.0048-4.846933 83.7632-31.675734l-2.935466 0.682667a54.613333 54.613333 0 0 1-29.354667-2.389333l-135.918933-54.613334a25.1904 25.1904 0 0 1-14.267734-21.504v-129.092266c0-2.184533 0-4.369067-0.887466-4.164267-26.692267 8.6016-32.3584 8.3968-46.2848 16.5888-1.911467 1.092267-1.501867 8.465067-1.774934 11.127467 0.8192 5.666133-4.7104 54.613333 2.184534 96.0512-7.304533-22.186667-15.018667-47.786667-20.48-69.973334a321.194667 321.194667 0 0 1-7.304534-38.024533 76.1856 76.1856 0 0 1 11.127467-7.5776 359.424 359.424 0 0 1 66.013867-27.306667 1147.6992 1147.6992 0 0 1 121.582933-30.9248l2.321067-0.4096a42.052267 42.052267 0 0 0 33.723733-49.083733z m25.941333 58.299733l-146.6368 33.450667a12.561067 12.561067 0 0 0-9.6256 11.537067V305.5616a7.304533 7.304533 0 0 0 9.6256 6.826667l146.6368-33.450667A12.561067 12.561067 0 0 0 587.093333 267.94666700000005v-104.8576a7.304533 7.304533 0 0 0-9.8304-7.3728z m172.919467-50.244266h-1.979733c-0.6144 0-20.8896 0.955733-48.7424 4.027733a609.553067 609.553067 0 0 0-95.573334 17.134933c-7.3728 2.184533-14.609067 4.5056-21.640533 6.826667v0.750933l8.669867-2.116266a55.0912 55.0912 0 0 1 29.354666 2.4576l128.955734 54.613333H752.162133a41.984 41.984 0 0 0-1.911466-83.968z"  horiz-adv-x="1024" />

    
    <glyph glyph-name="delivery" unicode="&#58951;" d="M512 896a512 512 0 1 1 512-512A512 512 0 0 1 512 896z m3.208533-261.5296a25.941333 25.941333 0 0 0 26.624 25.1904h146.8416a27.306667 27.306667 0 0 0 17.6128-6.280533L783.5648 588.8a24.644267 24.644267 0 0 0 9.0112-18.909867V445.44H515.208533z m-164.2496-526.1312a43.485867 43.485867 0 1 0 43.4176 43.554133 43.485867 43.485867 0 0 0-43.4176-43.554133z m330.888534 0a43.485867 43.485867 0 1 0 43.4176 43.4176 43.485867 43.485867 0 0 0-43.4176-43.4176zM819.2 275.729067a40.96 40.96 0 0 0-40.96-40.96H245.76a40.96 40.96 0 0 0-40.96 40.96V355.46453299999996a40.96 40.96 0 0 0 40.96 40.96h532.48a40.96 40.96 0 0 0 40.96-40.96z"  horiz-adv-x="1024" />

    
    <glyph glyph-name="xueyuanxuanzhong" unicode="&#59055;" d="M512 896a512 512 0 1 1 512-512A512 512 0 0 1 512 896z m343.995733-400.657067l-171.554133-85.333333V220.15999999999997c-1.979733-18.432-95.573333-78.097067-172.4416-78.097067S339.5584 192.85333300000002 339.5584 220.15999999999997V413.969067l-52.8384 27.306666v-320.853333a27.306667 27.306667 0 0 0-54.613333 0V468.923733l-64.1024 32.768a3.618133 3.618133 0 0 0 0 6.826667l340.7872 166.161067a3.549867 3.549867 0 0 0 3.208533 0l343.995733-172.782934a3.6864 3.6864 0 0 0 0-6.5536z"  horiz-adv-x="1238" />

    
    <glyph glyph-name="gongtonglinju" unicode="&#59176;" d="M872.203 471.323c-22.080 0-42.231-8.212-57.607-21.727l-236.687 236.798c13.531 15.38 21.753 35.544 21.753 57.639 0 48.226-39.095 87.322-87.322 87.322-48.226 0-87.322-39.095-87.322-87.322 0-22.095 8.223-42.258 21.753-57.639l-236.687-236.798c-15.376 13.515-35.527 21.727-57.607 21.727-48.226 0-87.322-39.095-87.322-87.322 0-48.226 39.095-87.322 87.322-87.322 22.124 0 42.311 8.244 57.698 21.806l237.466-237.578c-14.058-15.5-22.624-36.071-22.624-58.644 0-48.226 39.095-87.322 87.322-87.322 48.226 0 87.322 39.095 87.322 87.322 0 22.616-8.599 43.224-22.704 58.734l237.454 237.566c15.399-13.61 35.623-21.885 57.79-21.885 48.226 0 87.322 39.095 87.322 87.322 0.001 48.228-39.094 87.324-87.322 87.324zM512.341 109.584c-21.602 0-41.358-7.861-56.602-20.856l-237.613 237.724c12.544 14.298 20.507 32.712 21.555 52.966l185.44-0.307c2.11-46.353 40.347-83.287 87.22-83.287 46.776 0 84.959 36.781 87.213 82.998l185.516-0.307c1.231-19.854 9.096-37.902 21.407-51.973l-237.626-237.737c-15.232 12.949-34.952 20.777-56.511 20.777zM785.092 389.773l-185.728 0.307c-3.538 44.981-41.133 80.389-87.023 80.389-45.793 0-83.327-35.256-87.001-80.101l-185.818 0.307c-1.474 19.469-9.32 37.148-21.474 50.963l236.687 236.799c15.376-13.515 35.527-21.727 57.607-21.727 22.080 0 42.231 8.212 57.607 21.727l236.687-236.798c-12.341-14.029-20.247-32.040-21.543-51.865zM152.478 307.935c-41.943 0-76.065 34.123-76.065 76.065 0 41.943 34.123 76.065 76.065 76.065 41.943 0 76.065-34.123 76.065-76.065 0.001-41.942-34.122-76.065-76.065-76.065zM872.203 307.935c-41.943 0-76.065 34.123-76.065 76.065 0 41.943 34.123 76.065 76.065 76.065s76.065-34.123 76.065-76.065c0.001-41.942-34.122-76.065-76.065-76.065z"  horiz-adv-x="1024" />

    
    <glyph glyph-name="qietu08" unicode="&#59014;" d="M512 896a512 512 0 1 1 512-512A512 512 0 0 1 512 896z m0-763.767467a387.754667 387.754667 0 0 0-95.0272 11.605334 43.144533 43.144533 0 0 1-10.103467-0.546134c-33.1776-4.164267-85.538133-40.1408-98.986666-34.133333-7.236267 3.345067-8.874667 12.834133 0 34.133333 6.826667 17.544533 11.537067 38.161067-1.774934 50.176C268.288 227.87413300000003 190.532267 278.596267 191.146667 395.6736c0.8192 145.749333 143.36 263.714133 320.853333 263.714133 109.704533 0 206.301867-44.919467 263.714133-114.005333-20.48-10.103467-319.419733-147.456-328.430933-150.186667a13.653333 13.653333 0 0 0-11.0592 0.682667C409.6 407.7568 364.1344 470.2208 342.698667 464.418133c-12.4928-3.345067 6.826667-34.133333 23.552-68.744533S402.773333 308.4288 412.398933 303.92319999999995a17.134933 17.134933 0 0 1 12.219734 0c102.4 40.96 373.077333 211.1488 373.077333 211.1488A221.5936 221.5936 0 0 0 832.853333 395.6736c0-145.476267-143.36-263.441067-320.853333-263.441067z"  horiz-adv-x="1024" />

    
    <glyph glyph-name="jiashizheng1" unicode="&#58881;" d="M244.258133 295.253333h188.416a27.306667 27.306667 0 1 1 0 54.613334h-188.416a27.306667 27.306667 0 1 1 0-54.613334zM244.258133 400.315733h188.416a27.306667 27.306667 0 1 1 0 54.613334h-188.416a27.306667 27.306667 0 1 1 0-54.613334zM559.786667 337.373867a70.314667 70.314667 0 0 1 22.391466 14.062933v-36.2496h13.653334l-7.645867-28.672a23.688533 23.688533 0 0 1 22.9376-29.832533h180.701867c0-12.6976 0-20.48-0.4096-22.186667-2.594133-12.424533-7.714133-21.981867-11.605334-22.7328h-64.648533v-40.96h67.584c24.576 2.321067 42.461867 23.210667 49.152 57.344 0 1.8432 0.6144 3.822933 1.092267 45.4656a23.688533 23.688533 0 0 1-23.688534 23.9616h-22.664533l4.164267 27.306667A26.897067 26.897067 0 0 1 764.586667 356.010667h42.461866a27.306667 27.306667 0 0 1 27.306667 27.306666v54.613334a27.306667 27.306667 0 0 1-27.306667 27.306666h-80.213333a27.306667 27.306667 0 0 1-27.306667-27.306666v-54.613334a27.306667 27.306667 0 0 1 25.8048-27.306666h-47.786666c17.8176 17.6128 19.592533 56.1152 18.773333 79.530666a20.48 20.48 0 0 1-20.48 19.797334h-48.469333l1.160533 15.291733-40.96 2.935467-1.297067-18.2272h-32.836266v-40.96h25.8048c-11.946667-20.48-24.9856-35.498667-33.655467-38.638934l-3.208533-1.160533 13.653333-38.5024z m181.0432 86.8352h53.0432v-27.306667h-53.0432z m6.826666-109.226667l-2.6624-17.544533H632.900267l2.594133 9.762133-29.2864 7.9872z m-129.706666 83.5584l0.6144 1.2288a82.875733 82.875733 0 0 1 5.256533 14.5408H655.36a98.235733 98.235733 0 0 0-4.983467-27.306667 155.648 155.648 0 0 0-27.306666-0.546133l-3.549867 0.546133-3.345067-31.061333H587.093333a203.229867 203.229867 0 0 1 30.3104 42.8032zM550.7072 255.24906699999997h219.9552v-40.96H550.7072zM244.258133 190.39573299999995h103.424a27.306667 27.306667 0 1 1 0 54.613334H244.258133a27.306667 27.306667 0 1 1 0-54.613334zM512 896a512 512 0 1 1 512-512A512 512 0 0 1 512 896z m368.64-730.453333a27.306667 27.306667 0 0 0-27.306667-27.306667H170.666667a27.306667 27.306667 0 0 0-27.306667 27.306667V485.853867h737.28zM143.36 540.4672V602.4533329999999a27.306667 27.306667 0 0 0 27.306667 27.306667h682.666666a27.306667 27.306667 0 0 0 27.306667-27.306667v-61.986133z"  horiz-adv-x="1024" />

    
    <glyph glyph-name="chuangkouwindow25" unicode="&#58971;" d="M845.88544 779.56096 178.11456 779.56096c-34.21184 0-62.0544-27.82208-62.0544-62.04416L116.06016 50.4832c0-34.2016 27.84256-62.04416 62.0544-62.04416l667.77088 0c34.21184 0 62.0544 27.84256 62.0544 62.04416L907.93984 717.5168C907.93984 751.73888 880.09728 779.56096 845.88544 779.56096zM803.81952 708.93568c14.6944 0 26.59328-11.90912 26.59328-26.60352 0-14.68416-11.89888-26.59328-26.59328-26.59328s-26.59328 11.90912-26.59328 26.59328C777.22624 697.02656 789.12512 708.93568 803.81952 708.93568zM708.52608 708.93568c14.6944 0 26.59328-11.90912 26.59328-26.60352 0-14.68416-11.89888-26.59328-26.59328-26.59328s-26.59328 11.90912-26.59328 26.59328C681.9328 697.02656 693.83168 708.93568 708.52608 708.93568zM837.02784 59.35104 186.97216 59.35104 186.97216 589.73184l650.04544 0L837.0176 59.35104zM728.96512 273.02912l-0.01024 158.37184 79.18592-79.18592L728.96512 273.02912zM295.04512 273.02912l-79.18592 79.18592 79.17568 79.17568L295.04512 273.02912z"  horiz-adv-x="1024" />

    
    <glyph glyph-name="imei02" unicode="&#59137;" d="M718.097067 477.661867a27.306667 27.306667 0 1 1 0 54.613333H609.4848c-26.692267 0-48.469333-19.933867-48.469333-44.4416V281.6c0-24.507733 21.777067-44.4416 48.469333-44.4416h108.612267a27.306667 27.306667 0 1 1 0 54.613333H620.612267V357.376h73.591466a27.306667 27.306667 0 1 1 0 54.613333H620.612267v65.672534zM485.444267 530.8416h-3.959467a39.253333 39.253333 0 0 1-36.590933-23.210667L398.677333 395.605333 357.034667 506.88a39.1168 39.1168 0 0 1-37.000534 24.1664h-2.116266a37.614933 37.614933 0 0 1-39.1168-35.84v-232.106667a29.9008 29.9008 0 0 1 59.5968 0V388.369067l13.653333-37.205334a47.786667 47.786667 0 0 1 45.124267-29.969066h0.750933A47.786667 47.786667 0 0 1 443.733333 349.866667l20.48 50.517333-1.024-137.147733a28.672 28.672 0 0 1 29.627734-27.306667 28.672 28.672 0 0 1 29.764266 27.306667l1.706667 232.106666A34.133333 34.133333 0 0 1 513.2288 520.5333330000001a40.96 40.96 0 0 1-27.784533 10.308267zM213.060267 532.2752a28.672 28.672 0 0 1-29.832534-27.306667v-240.503466a28.672 28.672 0 0 1 29.832534-27.306667 28.603733 28.603733 0 0 1 29.764266 27.306667V504.968533a28.603733 28.603733 0 0 1-29.764266 27.306667zM810.939733 532.2752a28.603733 28.603733 0 0 1-29.764266-27.306667v-240.503466a29.9008 29.9008 0 0 1 59.5968 0V504.968533a28.672 28.672 0 0 1-29.832534 27.306667zM512 896a512 512 0 1 1 512-512A512 512 0 0 1 512 896z m323.925333-737.28h-647.850666a42.939733 42.939733 0 0 0-44.714667 40.96V568.3199999999999a42.939733 42.939733 0 0 0 44.714667 40.96h647.850666a42.939733 42.939733 0 0 0 44.714667-40.96v-368.64a42.939733 42.939733 0 0 0-44.714667-40.96z"  horiz-adv-x="1024" />

    
    <glyph glyph-name="imsi02" unicode="&#59138;" d="M485.444267 530.8416h-3.959467a39.253333 39.253333 0 0 1-36.590933-23.210667L398.677333 395.605333 357.034667 506.88a39.048533 39.048533 0 0 1-37.000534 24.234667h-2.116266a37.614933 37.614933 0 0 1-39.1168-35.84v-232.106667a29.9008 29.9008 0 0 1 59.5968 0V388.369067l13.653333-37.205334a47.786667 47.786667 0 0 1 45.124267-29.969066h0.750933A47.786667 47.786667 0 0 1 443.733333 349.866667l20.48 50.449066-1.024-137.079466a28.535467 28.535467 0 0 1 29.627734-27.306667 28.672 28.672 0 0 1 29.832533 27.306667l1.706667 232.106666A34.133333 34.133333 0 0 1 513.2288 520.5333330000001a40.96 40.96 0 0 1-27.784533 10.308267zM213.060267 532.2752a28.672 28.672 0 0 1-29.832534-27.306667v-240.503466a28.672 28.672 0 0 1 29.832534-27.306667 28.603733 28.603733 0 0 1 29.764266 27.306667V504.968533a28.603733 28.603733 0 0 1-29.764266 27.306667zM674.474667 408.9856l-25.941334 4.778667c-18.363733 3.413333-40.3456 11.741867-40.3456 32.085333a33.041067 33.041067 0 0 0 34.133334 31.607467l89.770666-1.2288h0.477867a27.306667 27.306667 0 1 1 0.4096 54.613333l-90.589867 1.2288c-51.882667 0-94.071467-38.7072-94.071466-86.2208 0-42.666667 34.133333-75.502933 88.2688-85.674667l26.555733-4.778666c14.9504-2.594133 40.004267-10.171733 40.004267-32.085334a33.1776 33.1776 0 0 0-34.133334-31.5392H584.977067a27.306667 27.306667 0 1 1 0-54.613333H669.013333c51.882667 0 94.0032 38.638933 94.0032 86.152533-0.341333 43.4176-34.2016 76.322133-88.541866 85.674667zM512 896a512 512 0 1 1 512-512A512 512 0 0 1 512 896z m323.925333-737.28h-647.850666a42.939733 42.939733 0 0 0-44.714667 40.96V568.3199999999999a42.939733 42.939733 0 0 0 44.714667 40.96h647.850666a42.939733 42.939733 0 0 0 44.714667-40.96v-368.64a42.939733 42.939733 0 0 0-44.714667-40.96zM810.939733 532.2752a28.603733 28.603733 0 0 1-29.764266-27.306667v-240.503466a29.9008 29.9008 0 0 1 59.5968 0V504.968533a28.672 28.672 0 0 1-29.832534 27.306667z"  horiz-adv-x="1024" />

    
    <glyph glyph-name="xuexiao3" unicode="&#59663;" d="M603.818667 425.506133l-93.320534 45.329067a6.826667 6.826667 0 0 1-6.3488 0l-93.3888-45.329067a7.441067 7.441067 0 0 1-4.096-6.826666v-305.698134h62.395734v90.999467a14.404267 14.404267 0 0 0 14.404266 14.472533H525.653333a14.472533 14.472533 0 0 0 14.472534-14.472533v-90.7264h67.7888V418.952533a7.236267 7.236267 0 0 1-4.096 6.5536z m-95.095467-118.101333a57.480533 57.480533 0 1 0 57.412267 57.412267 57.480533 57.480533 0 0 0-57.412267-57.412267zM284.125867 106.63253299999997h79.189333v184.32h-79.189333z m17.954133 136.533334a14.472533 14.472533 0 0 0 14.472533 14.472533h12.970667a14.472533 14.472533 0 0 0 14.472533-14.472533v-12.970667a14.472533 14.472533 0 0 0-14.472533-14.472533h-12.970667a14.472533 14.472533 0 0 0-14.472533 14.472533z m0-75.093334a14.472533 14.472533 0 0 0 14.472533 14.472534h12.970667a14.472533 14.472533 0 0 0 14.472533-14.472534v-12.9024a14.472533 14.472533 0 0 0-14.472533-14.472533h-12.970667a14.472533 14.472533 0 0 0-14.472533 14.472533zM651.332267 106.63253299999997h77.0048v184.32H651.332267z m20.48 136.533334a14.472533 14.472533 0 0 0 14.472533 14.472533h12.970667a14.472533 14.472533 0 0 0 14.472533-14.472533v-12.970667a14.472533 14.472533 0 0 0-14.472533-14.472533h-12.970667a14.472533 14.472533 0 0 0-14.472533 14.472533z m0-75.093334a14.472533 14.472533 0 0 0 14.472533 14.472534h12.970667a14.472533 14.472533 0 0 0 14.472533-14.472534v-12.9024a14.472533 14.472533 0 0 0-14.472533-14.472533h-12.970667a14.472533 14.472533 0 0 0-14.472533 14.472533zM512 896a512 512 0 1 1 512-512A512 512 0 0 1 512 896zM318.395733 501.486933l172.6464 81.92V690.312533a14.404267 14.404267 0 0 0 23.7568 11.0592 8.328533 8.328533 0 0 0 1.6384-0.682666l65.262934-37.6832a7.236267 7.236267 0 0 0 0-12.561067l-61.44-35.6352v-31.1296L698.094933 500.053333a21.7088 21.7088 0 0 0-9.284266-41.3696 21.367467 21.367467 0 0 0-9.216 2.116267l-174.011734 81.92-168.5504-80.418133a21.7088 21.7088 0 1 0-18.6368 39.185066zM806.229333 63.14666699999998H217.770667a21.7088 21.7088 0 0 0 0 43.4176h22.9376v184.32h-4.642134a28.8768 28.8768 0 0 0-28.8768 28.945066v42.3936A28.8768 28.8768 0 0 0 236.066133 390.826667h127.249067v28.125866a50.926933 50.926933 0 0 0 28.4672 45.533867l93.3888 45.397333a50.312533 50.312533 0 0 0 44.2368 0l93.3888-45.397333a50.858667 50.858667 0 0 0 28.535467-45.533867V390.826667h125.5424a28.8768 28.8768 0 0 0 28.672-28.603734v-42.530133a28.945067 28.945067 0 0 0-28.945067-28.945067H771.413333v-184.32h34.542934a21.7088 21.7088 0 0 0 0-43.4176z"  horiz-adv-x="1024" />

    
    <glyph glyph-name="yuanxiao" unicode="&#59033;" d="M349.115733 337.16906700000004H484.693333v-203.298134H349.115733zM539.306667 337.16906700000004h135.509333v-203.298134H539.306667zM512 896a512 512 0 1 1 512-512A512 512 0 0 1 512 896zM206.574933 476.023467a7.3728 7.3728 0 0 0 3.140267 6.007466l274.363733 197.358934a51.268267 51.268267 0 0 0 59.255467 0l274.363733-197.358934a7.3728 7.3728 0 0 0 3.140267-6.007466v-18.773334a7.7824 7.7824 0 0 0-8.055467-7.509333H214.562133a7.7824 7.7824 0 0 0-8.055466 7.509333z m591.598934-342.2208a27.306667 27.306667 0 0 0 0-54.613334H225.826133a27.306667 27.306667 0 0 0 0 54.613334h68.676267V337.16906700000004H225.826133a27.306667 27.306667 0 0 0 0 54.613333h572.347734a27.306667 27.306667 0 0 0 0-54.613333h-68.744534v-203.3664z"  horiz-adv-x="1024" />

    
    <glyph glyph-name="weizhi" unicode="&#58913;" d="M512 896a512 512 0 1 1 512-512A512 512 0 0 1 512 896z m29.218133-828.6208a46.557867 46.557867 0 0 0-34.133333-14.472533 45.397333 45.397333 0 0 0-34.474667 14.882133 46.216533 46.216533 0 0 0-14.062933 33.655467 43.690667 43.690667 0 0 0 14.677333 34.133333 45.4656 45.4656 0 0 0 34.133334 14.267733 46.557867 46.557867 0 0 0 33.655466-14.062933 43.690667 43.690667 0 0 0 14.882134-34.133333 46.557867 46.557867 0 0 0-14.677334-34.269867z m128.8192 365.3632c-10.171733-13.653333-32.699733-35.6352-69.154133-68.266667a212.923733 212.923733 0 0 1-44.373333-49.015466l-0.4096-0.6144a114.688 114.688 0 0 1-18.705067-64.1024v-13.653334a30.3104 30.3104 0 0 0-30.242133-30.583466h-0.887467a30.242133 30.242133 0 0 0-30.173867 30.242133v13.653333a151.005867 151.005867 0 0 0 16.110934 69.700267c12.424533 28.330667 37.2736 59.392 73.864533 92.3648A607.573333 607.573333 0 0 1 618.496 465.92a115.575467 115.575467 0 0 1 24.9856 68.949333c0 36.795733-10.4448 65.672533-31.9488 88.2688s-54.613333 33.245867-95.573333 33.245867c-46.4896 0-80.213333-15.018667-103.287467-45.943467-18.705067-24.439467-29.832533-56.593067-33.109333-95.573333a30.242133 30.242133 0 0 0-60.2112 5.188267c4.369067 51.336533 20.48 94.4128 47.3088 128.068266 35.0208 44.4416 85.6064 67.037867 150.186666 67.037867C574.8736 715.093333 621.226667 698.026667 655.36 663.893333c32.836267-31.607467 49.425067-74.478933 49.425067-127.453866a177.493333 177.493333 0 0 0-34.747734-103.697067z"  horiz-adv-x="1024" />

    
    <glyph glyph-name="daxingkeche" unicode="&#59175;" d="M539.374933 525.5168m6.9632 0l77.6192 0q6.9632 0 6.9632-6.9632l0-92.910933q0-6.9632-6.9632-6.9632l-77.6192 0q-6.9632 0-6.9632 6.9632l0 92.910933q0 6.9632 6.9632 6.9632ZM323.7888 525.5168h-42.871467A41.642667 41.642667 0 0 1 238.933333 483.805867v-58.1632a6.826667 6.826667 0 0 1 6.826667-6.826667h78.0288a6.826667 6.826667 0 0 1 6.826667 6.826667V518.5536a6.826667 6.826667 0 0 1-6.826667 6.9632zM389.256533 525.5168m6.9632 0l77.6192 0q6.9632 0 6.9632-6.9632l0-92.910933q0-6.9632-6.9632-6.9632l-77.6192 0q-6.9632 0-6.9632 6.9632l0 92.910933q0 6.9632 6.9632 6.9632ZM512 896a512 512 0 1 1 512-512A512 512 0 0 1 512 896zM351.709867 179.20000000000005a62.600533 62.600533 0 1 0 62.600533 62.600533 62.600533 62.600533 0 0 0-62.600533-62.600533z m336.827733 0a62.600533 62.600533 0 1 0 62.395733 62.600533 62.6688 62.6688 0 0 0-62.395733-62.600533z m171.963733 109.226667a45.806933 45.806933 0 0 0-45.806933-45.738667h-17.476267a110.523733 110.523733 0 0 1-220.706133 0H462.4384a110.523733 110.523733 0 0 1-220.706133 0h-32.426667A45.806933 45.806933 0 0 0 163.84 288.42666699999995V466.670933A122.129067 122.129067 0 0 0 285.627733 588.8h529.066667a45.806933 45.806933 0 0 0 45.806933-45.806933zM689.425067 525.5168m6.9632 0l77.6192 0q6.9632 0 6.9632-6.9632l0-92.910933q0-6.9632-6.9632-6.9632l-77.6192 0q-6.9632 0-6.9632 6.9632l0 92.910933q0 6.9632 6.9632 6.9632Z"  horiz-adv-x="1024" />

    
    <glyph glyph-name="shuangxin" unicode="&#59186;" d="M408.712 665.051c8.495 9.207 16.278 18.538 24.979 26.917 35.909 34.583 78.481 56.273 128.183 61.525 72.358 7.647 133.745-16.283 183.993-68.489 37.103-38.547 58.383-85.053 65.892-137.804 7.771-54.584-1.972-106.446-26.302-155.628-26.546-53.659-61.044-101.904-101.012-146.333-68.395-76.027-144.755-143.468-224.039-207.752-6.081-4.932-12.225-9.788-18.403-14.598-20.443-15.909-45.043-16.186-65.394-0.251-53.81 42.133-105.622 86.609-155.357 133.482-40.28 37.962-79.177 77.263-114.034 120.354-31.116 38.469-58.095 79.642-78.943 124.587-21.339 46.004-29.278 94.428-21.954 144.639 11.249 77.126 48.649 138.117 115.787 179.095 39.080 23.852 82.057 33.476 127.757 29.287 63.432-5.814 114.32-35.075 154.547-83.834 1.458-1.768 2.921-3.531 4.3-5.197zM51.245 509.725c1.459-46.073 13.846-78.229 27.641-104.355 16.67-31.574 35.699-61.674 57.783-89.771 33.125-42.146 70.354-80.495 109.106-117.421 50.696-48.308 103.823-93.8 158.714-137.259 3.346-2.648 5.795-2.707 9.163-0.030 77.561 61.635 152.064 126.632 219.989 198.928 39.411 41.945 74.124 87.306 101.814 137.906 19.248 35.174 31.812 72.276 31.398 112.733-0.607 59.416-20.715 111.141-65.229 151.381-46.216 41.779-100.404 55.86-160.871 39.080-49.25-13.667-84.784-45.383-109.509-89.583-4.967-8.88-11.726-14.488-22.111-14.517-10.404-0.028-17.328 5.531-22.135 14.471-9.295 17.288-20.769 33.067-35.202 46.372-51.849 47.79-111.523 63.119-178.562 39.002-50.367-18.118-84.070-54.957-105.251-103.5-12.302-28.199-17.207-57.928-16.738-83.437zM597.582 111.299c9.556 8.817 18.824 17.37 28.026 25.862 7.201-6.983 14.206-13.782 21.219-20.572 21.059-20.39 42.142-40.755 63.153-61.192 2.534-2.465 4.366-2.549 7.075-0.021 68.066 63.497 133.13 129.776 188.57 204.861 28.4 38.464 52.953 79.35 68.281 124.813 21.060 62.459 16.139 123.171-18.188 180.12-18.276 30.322-43.875 52.505-78.854 62.164-17.686 4.883-35.5 4.998-53.303 0.838-7.201 12.249-14.318 24.356-21.734 36.97 12.047 4.432 23.996 7.017 36.286 7.733 53.035 3.090 95.033-18.83 128.752-58.161 30.828-35.96 47.023-78.433 53.069-125.044 7.487-57.738-5.030-111.646-30.334-163.446-27.269-55.819-63.22-105.595-103.472-152.522-45.492-53.038-94.27-102.898-145.55-150.336-17.916-16.574-35.532-16.758-53.511-0.405-6.652 6.050-13.331 12.086-19.713 18.415-22.705 22.521-45.289 45.165-67.913 67.769-0.462 0.461-0.861 0.993-1.859 2.154z"  horiz-adv-x="1024" />

    
    <glyph glyph-name="ht_expand" unicode="&#58889;" d="M421.126 768.485h-245.891c-26.571 0-48.11-21.539-48.11-48.11v-245.896c0-26.566 21.539-48.105 48.11-48.105h245.891c26.571 0 48.11 21.539 48.11 48.105l-0 245.896c-0.001 26.571-21.54 48.11-48.11 48.11zM702.2 436.185c12.764-12.764 33.455-12.764 46.214 0l138.646 138.646c12.764 12.764 12.764 33.455 0 46.214l-138.646 138.652c-12.759 12.759-33.451 12.759-46.214 0l-138.651-138.652c-12.759-12.759-12.759-33.451 0-46.214l138.651-138.646zM421.126 340.846h-245.891c-26.571 0-48.11-21.539-48.11-48.11v-245.891c0-26.571 21.539-48.11 48.11-48.11h245.891c26.571 0 48.11 21.539 48.11 48.11l-0 245.891c-0.001 26.571-21.54 48.11-48.11 48.11zM848.765 340.846h-245.891c-26.571 0-48.11-21.539-48.11-48.11v-245.891c0-26.571 21.539-48.11 48.11-48.11l245.891 0c26.566 0 48.11 21.539 48.11 48.11v245.891c0 26.571-21.544 48.11-48.11 48.11z"  horiz-adv-x="1024" />

    
    <glyph glyph-name="ren" unicode="&#59180;" d="M512 896a512 512 0 1 1 512-512A512 512 0 0 1 512 896z m0-157.559467a186.845867 186.845867 0 1 0-187.460267-186.231466A188.0064 188.0064 0 0 0 512 738.440533z m0-708.881066a438.749867 438.749867 0 0 0-309.179733 125.3376 337.3056 337.3056 0 0 0 618.359466 0A443.255467 443.255467 0 0 0 512 29.55946700000004z"  horiz-adv-x="1026" />

    
    <glyph glyph-name="weibiaoti123" unicode="&#59025;" d="M384 512 192 512 192 640 128 640l0-64L64 576l0-64L0 512l0-128 64 0 0-64 64 0 0-64 64 0L192 384l192 0 0-448 64 0L448 832 384 832 384 512zM960 512 960 576l-64 0L896 640l-64 0 0-128-192 0L640 832 576 832l0-896 64 0L640 384l192 0 0-128 64 0L896 320l64 0L960 384l64 0L1024 512 960 512z"  horiz-adv-x="1024" />

    
    <glyph glyph-name="anjianxinxi" unicode="&#59026;" d="M670.72 442.026667H353.211733a27.306667 27.306667 0 0 1 0-54.613334h317.508267a27.306667 27.306667 0 0 1 0 54.613334zM670.72 579.447467H353.211733a27.306667 27.306667 0 0 1 0-54.613334h317.508267a27.306667 27.306667 0 0 1 0 54.613334zM670.72 304.605867H353.211733a27.306667 27.306667 0 0 1 0-54.613334h317.508267a27.306667 27.306667 0 0 1 0 54.613334zM512 896a512 512 0 1 1 512-512A512 512 0 0 1 512 896z m251.357867-653.5168a30.242133 30.242133 0 0 0-8.8064-21.2992l-125.474134-125.405867a40.96 40.96 0 0 0-29.218133-12.151466H299.8272a39.185067 39.185067 0 0 0-39.185067 39.185066V645.188267A39.185067 39.185067 0 0 0 299.8272 684.373333h424.3456a39.185067 39.185067 0 0 0 39.185067-39.185066z"  horiz-adv-x="1024" />

    
    <glyph glyph-name="huoche" unicode="&#58922;" d="M512 896a512 512 0 1 1 512-512A512 512 0 0 1 512 896z m29.4912-869.922133V384.546133v0.8192H670.378667a27.306667 27.306667 0 0 1 0 54.613334H371.712a27.306667 27.306667 0 0 1 0-54.613334h115.3024v-359.697066A319.419733 319.419733 0 0 0 484.693333 662.391467v52.6336a27.306667 27.306667 0 0 0 54.613334 0v-52.6336a319.419733 319.419733 0 0 0 2.184533-636.3136z"  horiz-adv-x="1024" />

    
    <glyph glyph-name="icon" unicode="&#59024;" d="M512 896C227.555556 896 0 668.444444 0 384c0-284.444444 227.555556-512 512-512 284.444444 0 512 227.555556 512 512C1024 668.444444 796.444444 896 512 896zM716.8 344.177778l-244.622222-182.044444C438.044444 145.066667 398.222222 167.822222 398.222222 201.955556L398.222222 560.355556c0 34.133333 39.822222 56.888889 73.955556 39.822222l244.622222-176.355556C750.933333 406.755556 750.933333 361.244444 716.8 344.177778z"  horiz-adv-x="1024" />

    
    <glyph glyph-name="youxiang11" unicode="&#58952;" d="M512 896a512 512 0 1 1 512-512A512 512 0 0 1 512 896zM277.026133 626.0053330000001h469.674667a58.1632 58.1632 0 0 0 58.709333-56.388266L512 410.146133 218.453333 569.4122669999999a57.890133 57.890133 0 0 0 58.5728 56.593066zM805.546667 198.99733300000003a58.1632 58.1632 0 0 0-58.709334-57.002666H277.162667a58.094933 58.094933 0 0 0-58.709334 57.070933V481.0752L505.173333 329.386667a15.086933 15.086933 0 0 1 13.653334 0l286.72 151.9616z"  horiz-adv-x="1029" />

    
    <glyph glyph-name="kuaidibaoyou" unicode="&#59172;" d="M425.5744 346.043733H512A18.909867 18.909867 0 0 1 512 384H425.5744a18.909867 18.909867 0 0 1 0-37.819733zM516.7104 299.349333h-155.648a18.909867 18.909867 0 0 1 0-37.751466h155.648a18.909867 18.909867 0 1 1 0 37.751466zM512 896a512 512 0 1 1 512-512A512 512 0 0 1 512 896z m148.2752-345.361067h129.706667c15.086933 0 27.306667-9.147733 27.306666-20.48s-12.219733-20.48-27.306666-20.48h-129.706667c-15.086933 0-27.306667 9.216-27.306667 20.48s12.219733 20.48 27.306667 20.48z m-513.774933-0.8192a21.981867 21.981867 0 0 0 19.592533 9.966934H505.173333a22.050133 22.050133 0 0 0 19.592534-9.966934l31.812266-75.093333H114.619733z m416.904533-324.949333a16.725333 16.725333 0 0 0-16.725333-16.657067H124.450133a16.725333 16.725333 0 0 0-16.725333 16.657067V437.0432H563.4048z m226.7136-7.509333h-129.706667c-15.086933 0-27.306667 9.147733-27.306666 20.48s12.219733 20.48 27.306666 20.48h129.706667c15.086933 0 27.306667-9.216 27.306667-20.48s-11.8784-20.48-27.306667-20.48zM888.968533 363.52h-228.693333c-15.086933 0-27.306667 9.147733-27.306667 20.48s12.219733 20.48 27.306667 20.48h228.693333c15.086933 0 27.306667-9.147733 27.306667-20.48s-12.219733-20.48-27.306667-20.48z"  horiz-adv-x="1039" />

    
    <glyph glyph-name="sirenxinjian" unicode="&#58931;" d="M763.630933 428.714667c-2.4576 2.321067-4.983467 4.642133-7.509333 6.826666L513.2288 625.4592a6.826667 6.826667 0 0 1-8.192 0L260.9152 434.5856A53.725867 53.725867 0 0 1 252.586667 419.84v-64.9216l106.018133-36.6592v143.36c0 22.7328 11.332267 41.301333 25.122133 41.301333h250.606934c13.653333 0 25.122133-18.568533 25.122133-41.301333v-147.729067l112.298667 40.96v65.604267a67.1744 67.1744 0 0 1-8.123734 8.260267zM582.0416 390.826667H443.733333a27.306667 27.306667 0 0 1 0-54.613334h138.308267a27.306667 27.306667 0 0 1 0 54.613334zM582.0416 463.2576H443.733333a27.306667 27.306667 0 0 1 0-54.613333h138.308267a27.306667 27.306667 0 0 1 0 54.613333zM512 896a512 512 0 1 1 512-512A512 512 0 0 1 512 896z m314.368-743.424a65.809067 65.809067 0 0 0-65.7408-65.7408H263.3728A65.809067 65.809067 0 0 0 197.973333 152.57600000000002V420.4544c0 23.1424 18.158933 45.533867 23.688534 51.882667a25.8048 25.8048 0 0 0 3.754666 3.4816l246.510934 192.7168A61.8496 61.8496 0 0 0 546.133333 668.945067l244.872534-191.146667a25.873067 25.873067 0 0 0 2.8672-2.594133c2.184533-2.321067 4.437333-4.369067 6.826666-6.3488 10.24-9.489067 25.668267-23.7568 25.668267-48.401067z"  horiz-adv-x="1024" />

    
    </font>
</defs>
</svg>
